<?xml version="1.0" encoding="UTF-8"?>
<svg xmlns="http://www.w3.org/2000/svg" xmlns:xlink="http://www.w3.org/1999/xlink" width="30pt" height="30.000001pt" viewBox="0 0 30 30.000001" version="1.2">
<defs>
<clipPath id="clip1">
  <path d="M 4.257812 2.902344 L 27.484375 2.902344 L 27.484375 26.128906 L 4.257812 26.128906 Z M 4.257812 2.902344 "/>
</clipPath>
</defs>
<g id="surface1">
<g clip-path="url(#clip1)" clip-rule="nonzero">
<path style=" stroke:none;fill-rule:nonzero;fill:rgb(100%,100%,100%);fill-opacity:1;" d="M 20.296875 2.902344 C 19.660156 2.902344 19.136719 3.425781 19.136719 4.058594 L 19.136719 16.527344 C 19.136719 16.535156 19.089844 16.703125 19.085938 16.710938 L 17.609375 19.078125 C 17.445312 19.332031 17.386719 19.652344 17.53125 19.917969 C 17.679688 20.179688 17.980469 20.296875 18.285156 20.296875 L 26.328125 20.296875 C 26.960938 20.296875 27.484375 19.777344 27.484375 19.140625 L 27.484375 4.058594 C 27.484375 3.425781 26.960938 2.902344 26.328125 2.902344 Z M 20.296875 3.605469 L 26.328125 3.605469 C 26.582031 3.605469 26.78125 3.804688 26.78125 4.058594 L 26.78125 19.140625 C 26.78125 19.394531 26.582031 19.59375 26.328125 19.59375 L 18.285156 19.59375 C 18.191406 19.59375 18.160156 19.578125 18.152344 19.574219 C 18.152344 19.5625 18.15625 19.527344 18.203125 19.449219 L 19.683594 17.085938 C 19.792969 16.90625 19.84375 16.738281 19.84375 16.527344 L 19.84375 4.058594 C 19.84375 3.804688 20.042969 3.605469 20.296875 3.605469 Z M 21.414062 5.917969 C 21.367188 5.917969 21.324219 5.925781 21.277344 5.945312 C 21.234375 5.960938 21.195312 5.988281 21.164062 6.019531 C 21.128906 6.054688 21.105469 6.09375 21.085938 6.136719 C 21.066406 6.179688 21.058594 6.226562 21.058594 6.269531 C 21.058594 6.316406 21.066406 6.363281 21.085938 6.40625 C 21.105469 6.449219 21.128906 6.488281 21.164062 6.523438 C 21.195312 6.554688 21.234375 6.582031 21.277344 6.597656 C 21.324219 6.617188 21.367188 6.625 21.414062 6.625 L 25.523438 6.625 C 25.570312 6.625 25.617188 6.617188 25.660156 6.597656 C 25.703125 6.582031 25.742188 6.554688 25.773438 6.523438 C 25.808594 6.488281 25.835938 6.449219 25.851562 6.40625 C 25.871094 6.363281 25.878906 6.316406 25.878906 6.269531 C 25.878906 6.226562 25.871094 6.179688 25.851562 6.136719 C 25.835938 6.09375 25.808594 6.054688 25.773438 6.019531 C 25.742188 5.988281 25.703125 5.960938 25.660156 5.945312 C 25.617188 5.925781 25.570312 5.917969 25.523438 5.917969 Z M 21.976562 8.535156 C 21.929688 8.53125 21.882812 8.542969 21.839844 8.558594 C 21.796875 8.578125 21.757812 8.601562 21.722656 8.636719 C 21.691406 8.667969 21.664062 8.707031 21.644531 8.75 C 21.628906 8.792969 21.617188 8.839844 21.617188 8.886719 C 21.617188 8.933594 21.628906 8.976562 21.644531 9.019531 C 21.664062 9.066406 21.691406 9.101562 21.722656 9.136719 C 21.757812 9.167969 21.796875 9.195312 21.839844 9.210938 C 21.882812 9.230469 21.929688 9.238281 21.976562 9.238281 L 24.964844 9.238281 C 25.007812 9.238281 25.054688 9.230469 25.097656 9.210938 C 25.144531 9.195312 25.183594 9.167969 25.214844 9.136719 C 25.25 9.101562 25.273438 9.066406 25.292969 9.019531 C 25.3125 8.976562 25.320312 8.933594 25.320312 8.886719 C 25.320312 8.839844 25.3125 8.792969 25.292969 8.75 C 25.273438 8.707031 25.25 8.667969 25.214844 8.636719 C 25.183594 8.601562 25.144531 8.578125 25.097656 8.558594 C 25.054688 8.542969 25.007812 8.53125 24.964844 8.535156 Z M 10.242188 9.339844 C 8.273438 9.339844 6.671875 10.941406 6.671875 12.90625 C 6.671875 14.875 8.273438 16.476562 10.242188 16.476562 C 12.207031 16.476562 13.808594 14.875 13.808594 12.90625 C 13.808594 10.941406 12.207031 9.339844 10.242188 9.339844 Z M 10.242188 10.042969 C 11.828125 10.042969 13.105469 11.320312 13.105469 12.90625 C 13.105469 14.496094 11.828125 15.773438 10.242188 15.773438 C 8.652344 15.773438 7.375 14.496094 7.375 12.90625 C 7.375 11.320312 8.652344 10.042969 10.242188 10.042969 Z M 21.414062 11.148438 C 21.367188 11.148438 21.324219 11.15625 21.277344 11.171875 C 21.234375 11.191406 21.195312 11.214844 21.164062 11.25 C 21.128906 11.28125 21.105469 11.320312 21.085938 11.363281 C 21.066406 11.40625 21.058594 11.453125 21.058594 11.5 C 21.058594 11.546875 21.066406 11.59375 21.085938 11.636719 C 21.105469 11.679688 21.128906 11.71875 21.164062 11.75 C 21.195312 11.78125 21.234375 11.808594 21.277344 11.828125 C 21.324219 11.84375 21.367188 11.851562 21.414062 11.851562 L 25.523438 11.851562 C 25.570312 11.851562 25.617188 11.84375 25.660156 11.828125 C 25.703125 11.808594 25.742188 11.78125 25.773438 11.75 C 25.808594 11.71875 25.835938 11.679688 25.851562 11.636719 C 25.871094 11.59375 25.878906 11.546875 25.878906 11.5 C 25.878906 11.453125 25.871094 11.40625 25.851562 11.363281 C 25.835938 11.320312 25.808594 11.28125 25.773438 11.25 C 25.742188 11.214844 25.703125 11.191406 25.660156 11.171875 C 25.617188 11.15625 25.570312 11.148438 25.523438 11.148438 Z M 21.976562 13.761719 C 21.929688 13.761719 21.882812 13.769531 21.839844 13.789062 C 21.796875 13.804688 21.757812 13.832031 21.722656 13.863281 C 21.691406 13.894531 21.664062 13.933594 21.644531 13.976562 C 21.628906 14.019531 21.617188 14.066406 21.617188 14.113281 C 21.617188 14.160156 21.628906 14.207031 21.644531 14.25 C 21.664062 14.292969 21.691406 14.332031 21.722656 14.363281 C 21.757812 14.398438 21.796875 14.421875 21.839844 14.441406 C 21.882812 14.457031 21.929688 14.464844 21.976562 14.464844 L 24.964844 14.464844 C 25.007812 14.464844 25.054688 14.457031 25.097656 14.441406 C 25.144531 14.421875 25.183594 14.398438 25.214844 14.363281 C 25.25 14.332031 25.273438 14.292969 25.292969 14.25 C 25.3125 14.207031 25.320312 14.160156 25.320312 14.113281 C 25.320312 14.066406 25.3125 14.019531 25.292969 13.976562 C 25.273438 13.933594 25.25 13.894531 25.214844 13.863281 C 25.183594 13.832031 25.144531 13.804688 25.097656 13.789062 C 25.054688 13.769531 25.007812 13.761719 24.964844 13.761719 Z M 21.414062 16.375 C 21.367188 16.375 21.324219 16.382812 21.277344 16.402344 C 21.234375 16.417969 21.195312 16.445312 21.164062 16.476562 C 21.128906 16.511719 21.105469 16.550781 21.085938 16.59375 C 21.066406 16.636719 21.058594 16.679688 21.058594 16.726562 C 21.058594 16.773438 21.066406 16.820312 21.085938 16.863281 C 21.105469 16.90625 21.128906 16.945312 21.164062 16.980469 C 21.195312 17.011719 21.234375 17.039062 21.277344 17.054688 C 21.324219 17.070312 21.367188 17.082031 21.414062 17.078125 L 25.523438 17.078125 C 25.570312 17.082031 25.617188 17.070312 25.660156 17.054688 C 25.703125 17.039062 25.742188 17.011719 25.773438 16.980469 C 25.808594 16.945312 25.835938 16.90625 25.851562 16.863281 C 25.871094 16.820312 25.878906 16.773438 25.878906 16.726562 C 25.878906 16.679688 25.871094 16.636719 25.851562 16.59375 C 25.835938 16.550781 25.808594 16.511719 25.773438 16.476562 C 25.742188 16.445312 25.703125 16.417969 25.660156 16.402344 C 25.617188 16.382812 25.570312 16.375 25.523438 16.375 Z M 7.828125 17.382812 C 5.859375 17.382812 4.257812 18.984375 4.257812 20.949219 L 4.257812 24.972656 C 4.257812 25.605469 4.78125 26.128906 5.414062 26.128906 L 15.066406 26.128906 C 15.699219 26.128906 16.222656 25.605469 16.222656 24.972656 L 16.222656 20.949219 C 16.222656 18.984375 14.621094 17.382812 12.652344 17.382812 Z M 7.828125 18.085938 L 12.652344 18.085938 C 14.238281 18.085938 15.519531 19.367188 15.519531 20.949219 L 15.519531 24.972656 C 15.519531 25.226562 15.320312 25.425781 15.066406 25.425781 L 5.414062 25.425781 C 5.160156 25.425781 4.960938 25.226562 4.960938 24.972656 L 4.960938 20.949219 C 4.960938 19.367188 6.242188 18.085938 7.828125 18.085938 Z M 7.828125 18.085938 "/>
</g>
</g>
</svg>
