<?xml version="1.0" encoding="UTF-8"?>
<svg xmlns="http://www.w3.org/2000/svg" xmlns:xlink="http://www.w3.org/1999/xlink" width="30pt" height="30.000001pt" viewBox="0 0 30 30.000001" version="1.2">
<defs>
<clipPath id="clip1">
  <path d="M 9 2.902344 L 16 2.902344 L 16 6 L 9 6 Z M 9 2.902344 "/>
</clipPath>
<clipPath id="clip2">
  <path d="M 7.035156 9.203125 L 22.996094 9.203125 L 22.996094 26.125 L 7.035156 26.125 Z M 7.035156 9.203125 "/>
</clipPath>
</defs>
<g id="surface1">
<path style=" stroke:none;fill-rule:nonzero;fill:rgb(100%,100%,100%);fill-opacity:1;" d="M 14.902344 6.011719 C 14.921875 6.132812 14.929688 6.257812 14.929688 6.382812 C 14.929688 7.097656 14.640625 7.742188 14.171875 8.210938 C 13.703125 8.679688 13.054688 8.96875 12.339844 8.96875 C 11.625 8.96875 10.976562 8.679688 10.507812 8.210938 C 10.039062 7.742188 9.746094 7.097656 9.746094 6.382812 C 9.746094 6.257812 9.757812 6.132812 9.773438 6.011719 C 9.804688 6.011719 9.832031 6.011719 9.859375 6.011719 L 14.816406 6.011719 C 14.847656 6.011719 14.875 6.011719 14.902344 6.011719 "/>
<g clip-path="url(#clip1)" clip-rule="nonzero">
<path style=" stroke:none;fill-rule:nonzero;fill:rgb(39.219666%,70.979309%,96.469116%);fill-opacity:1;" d="M 10.453125 2.902344 L 14.226562 2.902344 C 14.488281 2.902344 14.703125 3.101562 14.703125 3.34375 L 15.144531 5.136719 C 15.144531 5.425781 14.890625 5.660156 14.578125 5.660156 L 10.097656 5.660156 C 9.785156 5.660156 9.53125 5.425781 9.53125 5.136719 L 9.976562 3.34375 C 9.976562 3.101562 10.1875 2.902344 10.453125 2.902344 "/>
</g>
<g clip-path="url(#clip2)" clip-rule="nonzero">
<path style=" stroke:none;fill-rule:nonzero;fill:rgb(100%,100%,100%);fill-opacity:1;" d="M 15.890625 13 C 15.78125 12.054688 15.472656 11.167969 14.863281 10.484375 C 14.328125 9.882812 13.574219 9.449219 12.539062 9.273438 C 12.40625 9.25 12.269531 9.238281 12.132812 9.230469 C 11.511719 9.199219 10.914062 9.347656 10.433594 9.71875 C 9.953125 10.085938 9.597656 10.65625 9.460938 11.46875 C 9.433594 11.628906 9.414062 11.804688 9.40625 11.988281 L 9.402344 11.988281 C 9.402344 11.996094 9.402344 12.003906 9.402344 12.011719 C 9.402344 13.617188 9.277344 14.609375 9.160156 15.527344 C 9.046875 16.394531 8.945312 17.199219 8.953125 18.355469 C 8.960938 19.03125 9.070312 19.6875 9.273438 20.304688 C 9.382812 20.640625 9.523438 20.964844 9.6875 21.273438 C 11.136719 21.898438 13.210938 21.90625 15.230469 21.914062 C 16.351562 21.917969 17.457031 21.921875 18.433594 22.03125 C 18.558594 22.042969 18.648438 22.15625 18.636719 22.28125 C 18.621094 22.402344 18.511719 22.492188 18.386719 22.480469 C 17.421875 22.375 16.335938 22.371094 15.230469 22.367188 C 13.203125 22.359375 11.117188 22.351562 9.585938 21.722656 C 8.777344 22.21875 8.011719 23.027344 7.539062 23.527344 L 7.535156 23.53125 C 7.007812 24.089844 6.941406 24.738281 7.132812 25.242188 C 7.207031 25.433594 7.320312 25.605469 7.457031 25.746094 C 7.601562 25.890625 7.777344 26 7.972656 26.0625 C 8.429688 26.210938 8.976562 26.113281 9.457031 25.601562 C 9.632812 25.417969 9.9375 25.230469 10.242188 25.042969 C 10.5 24.890625 10.753906 24.734375 10.972656 24.558594 C 12.597656 24.796875 15.625 24.757812 17.988281 24.730469 C 18.796875 24.71875 19.527344 24.710938 20.089844 24.714844 C 20.113281 24.714844 20.132812 24.714844 20.152344 24.710938 C 21.59375 24.648438 22.421875 24.023438 22.785156 23.21875 C 22.941406 22.867188 23.007812 22.488281 22.996094 22.105469 C 22.980469 21.734375 22.894531 21.363281 22.746094 21.019531 C 22.355469 20.121094 21.53125 19.410156 20.507812 19.40625 L 20.5 19.40625 L 20.5 19.402344 C 20.488281 19.402344 20.476562 19.402344 20.46875 19.402344 C 20.074219 19.394531 19.242188 19.339844 18.332031 19.234375 C 17.683594 19.160156 17.003906 19.0625 16.441406 18.941406 C 15.984375 18.84375 15.742188 18.558594 15.632812 18.167969 C 15.523438 17.785156 15.519531 17.300781 15.570312 16.78125 C 15.527344 16.753906 15.484375 16.726562 15.441406 16.699219 C 14.445312 16.058594 13.5625 15.265625 12.636719 14.527344 C 12.308594 14.261719 12.054688 13.914062 11.972656 13.496094 C 11.886719 13.066406 11.980469 12.609375 12.222656 12.246094 C 12.472656 11.878906 12.851562 11.628906 13.289062 11.542969 C 13.703125 11.460938 14.136719 11.550781 14.496094 11.765625 C 14.542969 11.792969 14.585938 11.820312 14.621094 11.859375 L 14.636719 11.875 C 15.035156 12.273438 15.453125 12.648438 15.890625 13 "/>
</g>
<path style=" stroke:none;fill-rule:evenodd;fill:rgb(39.219666%,70.979309%,96.469116%);fill-opacity:1;" d="M 20.671875 16.40625 C 20.660156 16.398438 20.644531 16.394531 20.628906 16.390625 C 19.628906 16.070312 17.839844 14.902344 16.953125 14.347656 C 15.984375 13.742188 15.097656 13.023438 14.292969 12.214844 L 14.277344 12.199219 C 14.269531 12.195312 14.261719 12.1875 14.25 12.183594 C 13.992188 12.027344 13.679688 11.957031 13.382812 12.015625 C 13.070312 12.078125 12.800781 12.257812 12.625 12.515625 C 12.453125 12.777344 12.386719 13.09375 12.449219 13.402344 C 12.507812 13.707031 12.703125 13.957031 12.941406 14.148438 C 13.84375 14.871094 14.730469 15.667969 15.707031 16.292969 C 16.582031 16.855469 18.375 18.015625 19.355469 18.375 L 19.402344 18.398438 C 19.65625 18.554688 19.960938 18.609375 20.253906 18.554688 C 20.5625 18.492188 20.832031 18.3125 21.007812 18.050781 C 21.183594 17.792969 21.246094 17.472656 21.183594 17.167969 C 21.125 16.859375 20.945312 16.589844 20.683594 16.414062 L 20.671875 16.40625 "/>
</g>
</svg>
