<?xml version="1.0" encoding="UTF-8"?>
<svg xmlns="http://www.w3.org/2000/svg" xmlns:xlink="http://www.w3.org/1999/xlink" width="30pt" height="30.000001pt" viewBox="0 0 30 30.000001" version="1.2">
<defs>
<clipPath id="clip1">
  <path d="M 13 22 L 25.769531 22 L 25.769531 25.511719 L 13 25.511719 Z M 13 22 "/>
</clipPath>
<clipPath id="clip2">
  <path d="M 13 22 L 19 22 L 19 25.511719 L 13 25.511719 Z M 13 22 "/>
</clipPath>
<clipPath id="clip3">
  <path d="M 4.222656 22 L 10 22 L 10 25.511719 L 4.222656 25.511719 Z M 4.222656 22 "/>
</clipPath>
<clipPath id="clip4">
  <path d="M 6 9 L 18 9 L 18 25.511719 L 6 25.511719 Z M 6 9 "/>
</clipPath>
<clipPath id="clip5">
  <path d="M 8 22 L 10 22 L 10 25.511719 L 8 25.511719 Z M 8 22 "/>
</clipPath>
<clipPath id="clip6">
  <path d="M 17 22 L 25.769531 22 L 25.769531 25.511719 L 17 25.511719 Z M 17 22 "/>
</clipPath>
<clipPath id="clip7">
  <path d="M 13 18 L 18 18 L 18 25.511719 L 13 25.511719 Z M 13 18 "/>
</clipPath>
<clipPath id="clip8">
  <path d="M 4.222656 3.738281 L 25.769531 3.738281 L 25.769531 25.511719 L 4.222656 25.511719 Z M 4.222656 3.738281 "/>
</clipPath>
</defs>
<g id="surface1">
<g clip-path="url(#clip1)" clip-rule="nonzero">
<path style=" stroke:none;fill-rule:nonzero;fill:rgb(65.879822%,77.249146%,96.859741%);fill-opacity:1;" d="M 23.117188 22.042969 L 25.308594 25.328125 L 13.988281 25.328125 C 15.808594 25.328125 17.273438 23.863281 17.273438 22.042969 L 23.117188 22.042969 "/>
</g>
<g clip-path="url(#clip2)" clip-rule="nonzero">
<path style=" stroke:none;fill-rule:nonzero;fill:rgb(56.858826%,72.158813%,98.429871%);fill-opacity:1;" d="M 18.003906 22.042969 C 18.003906 23.863281 16.539062 25.328125 14.71875 25.328125 L 13.988281 25.328125 C 15.808594 25.328125 17.273438 23.863281 17.273438 22.042969 L 18.003906 22.042969 "/>
</g>
<path style=" stroke:none;fill-rule:nonzero;fill:rgb(88.62915%,90.589905%,98.039246%);fill-opacity:1;" d="M 9.972656 4.152344 C 8.554688 4.152344 7.417969 5.285156 7.417969 6.695312 L 7.417969 7.085938 C 7.417969 8.496094 8.554688 9.628906 9.972656 9.628906 C 11.390625 9.628906 12.527344 8.496094 12.527344 7.085938 L 12.527344 6.695312 C 12.527344 5.285156 11.390625 4.152344 9.972656 4.152344 "/>
<path style=" stroke:none;fill-rule:nonzero;fill:rgb(97.24884%,97.24884%,97.24884%);fill-opacity:1;" d="M 9.972656 4.152344 C 11.390625 4.152344 12.527344 5.285156 12.527344 6.695312 L 12.527344 7.085938 C 12.527344 8.492188 11.390625 9.628906 9.972656 9.628906 C 9.847656 9.628906 9.726562 9.617188 9.605469 9.601562 C 10.847656 9.425781 11.796875 8.371094 11.796875 7.085938 L 11.796875 6.695312 C 11.796875 5.410156 10.847656 4.355469 9.605469 4.179688 C 9.726562 4.164062 9.847656 4.152344 9.972656 4.152344 "/>
<path style=" stroke:none;fill-rule:nonzero;fill:rgb(76.858521%,82.348633%,94.119263%);fill-opacity:1;" d="M 9.972656 4.152344 C 10.097656 4.152344 10.21875 4.164062 10.335938 4.179688 C 9.097656 4.355469 8.148438 5.410156 8.148438 6.695312 L 8.148438 7.085938 C 8.148438 8.371094 9.097656 9.425781 10.335938 9.601562 C 10.21875 9.617188 10.097656 9.628906 9.972656 9.628906 C 8.554688 9.628906 7.417969 8.492188 7.417969 7.085938 L 7.417969 6.695312 C 7.417969 5.285156 8.554688 4.152344 9.972656 4.152344 "/>
<g clip-path="url(#clip3)" clip-rule="nonzero">
<path style=" stroke:none;fill-rule:nonzero;fill:rgb(88.62915%,90.589905%,98.039246%);fill-opacity:1;" d="M 9.242188 22.042969 C 8.835938 22.042969 8.511719 22.367188 8.511719 22.773438 L 8.511719 24.597656 C 8.511719 25.003906 8.835938 25.328125 9.242188 25.328125 L 4.859375 25.328125 C 4.457031 25.328125 4.128906 25.003906 4.128906 24.597656 C 4.128906 24.191406 4.457031 23.867188 4.859375 23.867188 L 5.226562 23.867188 C 5.632812 23.867188 5.957031 23.542969 5.957031 23.136719 C 5.957031 22.53125 6.445312 22.042969 7.050781 22.042969 L 9.242188 22.042969 "/>
<path style=" stroke:none;fill-rule:nonzero;fill:rgb(76.858521%,82.348633%,94.119263%);fill-opacity:1;" d="M 9.242188 22.042969 C 8.835938 22.042969 8.511719 22.367188 8.511719 22.773438 L 7.78125 22.773438 C 7.175781 22.773438 6.6875 23.261719 6.6875 23.867188 C 6.6875 24.273438 6.363281 24.597656 5.957031 24.597656 L 5.589844 24.597656 C 5.1875 24.597656 4.859375 24.921875 4.859375 25.328125 C 4.457031 25.328125 4.128906 25.003906 4.128906 24.597656 C 4.128906 24.191406 4.457031 23.867188 4.859375 23.867188 L 5.226562 23.867188 C 5.632812 23.867188 5.957031 23.542969 5.957031 23.136719 C 5.957031 22.53125 6.445312 22.042969 7.050781 22.042969 L 9.242188 22.042969 "/>
</g>
<g clip-path="url(#clip4)" clip-rule="nonzero">
<path style=" stroke:none;fill-rule:nonzero;fill:rgb(88.62915%,90.589905%,98.039246%);fill-opacity:1;" d="M 9.972656 9.628906 C 11.589844 9.628906 12.894531 10.929688 12.894531 12.550781 L 12.894531 18.753906 L 13.988281 18.753906 C 15.808594 18.753906 17.273438 20.222656 17.273438 22.042969 C 17.273438 23.863281 15.808594 25.328125 13.988281 25.328125 L 9.242188 25.328125 C 8.835938 25.328125 8.511719 25.003906 8.511719 24.597656 L 8.511719 22.773438 C 8.511719 22.367188 8.835938 22.042969 9.242188 22.042969 L 8.148438 22.042969 C 7.136719 22.042969 6.320312 21.226562 6.320312 20.214844 C 6.320312 17.660156 6.320312 15.105469 6.320312 12.550781 C 6.320312 10.929688 7.625 9.628906 9.242188 9.628906 L 9.972656 9.628906 "/>
</g>
<path style=" stroke:none;fill-rule:nonzero;fill:rgb(65.879822%,77.249146%,96.859741%);fill-opacity:1;" d="M 9.972656 6.707031 C 8.839844 6.707031 7.886719 6.371094 7.546875 5.902344 C 7.878906 4.882812 8.835938 4.152344 9.972656 4.152344 C 11.109375 4.152344 12.066406 4.882812 12.398438 5.902344 C 12.058594 6.371094 11.105469 6.707031 9.972656 6.707031 "/>
<path style=" stroke:none;fill-rule:nonzero;fill:rgb(56.858826%,72.158813%,98.429871%);fill-opacity:1;" d="M 10.335938 6.695312 C 10.21875 6.703125 10.097656 6.707031 9.972656 6.707031 C 8.839844 6.707031 7.886719 6.371094 7.546875 5.902344 C 7.878906 4.882812 8.835938 4.152344 9.972656 4.152344 C 10.097656 4.152344 10.21875 4.164062 10.335938 4.179688 C 9.367188 4.320312 8.574219 4.992188 8.277344 5.902344 C 8.578125 6.320312 9.371094 6.628906 10.335938 6.695312 "/>
<path style=" stroke:none;fill-rule:nonzero;fill:rgb(97.24884%,97.24884%,97.24884%);fill-opacity:1;" d="M 9.972656 9.628906 C 11.589844 9.628906 12.894531 10.929688 12.894531 12.550781 L 12.894531 18.753906 L 12.164062 18.753906 L 12.164062 12.550781 C 12.164062 10.929688 10.859375 9.628906 9.242188 9.628906 L 9.972656 9.628906 "/>
<path style=" stroke:none;fill-rule:nonzero;fill:rgb(76.858521%,82.348633%,94.119263%);fill-opacity:1;" d="M 9.972656 9.628906 C 8.355469 9.628906 7.050781 10.929688 7.050781 12.550781 C 7.050781 15.105469 7.050781 17.660156 7.050781 20.214844 C 7.050781 21.226562 7.867188 22.042969 8.878906 22.042969 L 8.148438 22.042969 C 7.136719 22.042969 6.320312 21.226562 6.320312 20.214844 C 6.320312 17.660156 6.320312 15.105469 6.320312 12.550781 C 6.320312 10.929688 7.625 9.628906 9.242188 9.628906 L 9.972656 9.628906 "/>
<g clip-path="url(#clip5)" clip-rule="nonzero">
<path style=" stroke:none;fill-rule:nonzero;fill:rgb(76.858521%,86.268616%,94.119263%);fill-opacity:1;" d="M 9.972656 22.042969 C 9.566406 22.042969 9.242188 22.367188 9.242188 22.773438 L 9.242188 24.597656 C 9.242188 25.003906 9.566406 25.328125 9.972656 25.328125 L 9.242188 25.328125 C 8.835938 25.328125 8.511719 25.003906 8.511719 24.597656 L 8.511719 22.773438 C 8.511719 22.367188 8.835938 22.042969 9.242188 22.042969 L 9.972656 22.042969 "/>
</g>
<g clip-path="url(#clip6)" clip-rule="nonzero">
<path style=" stroke:none;fill-rule:nonzero;fill:rgb(97.24884%,97.24884%,97.24884%);fill-opacity:1;" d="M 23.117188 22.042969 L 25.308594 25.328125 L 24.089844 25.328125 L 22.386719 22.773438 L 17.191406 22.773438 C 17.242188 22.535156 17.273438 22.292969 17.273438 22.042969 L 23.117188 22.042969 "/>
</g>
<path style=" stroke:none;fill-rule:nonzero;fill:rgb(88.62915%,90.589905%,98.039246%);fill-opacity:1;" d="M 13.988281 16.929688 L 15.8125 17.296875 C 16.210938 17.375 16.542969 17.621094 16.542969 18.027344 C 16.542969 18.429688 16.21875 18.753906 15.8125 18.753906 L 13.988281 18.753906 L 13.988281 16.929688 "/>
<path style=" stroke:none;fill-rule:nonzero;fill:rgb(76.858521%,82.348633%,94.119263%);fill-opacity:1;" d="M 13.988281 16.929688 L 14.71875 17.078125 L 14.71875 18.027344 L 16.542969 18.027344 C 16.542969 18.429688 16.21875 18.753906 15.8125 18.753906 L 13.988281 18.753906 L 13.988281 16.929688 "/>
<path style=" stroke:none;fill-rule:nonzero;fill:rgb(65.879822%,77.249146%,96.859741%);fill-opacity:1;" d="M 13.988281 16.929688 C 13.988281 16.523438 13.664062 16.199219 13.257812 16.199219 L 12.527344 16.199219 C 11.921875 16.199219 11.433594 15.710938 11.433594 15.105469 L 11.433594 12.914062 C 11.433594 11.902344 10.617188 11.089844 9.605469 11.089844 C 8.597656 11.089844 7.78125 11.902344 7.78125 12.914062 L 7.78125 14.742188 C 7.78125 16.964844 9.574219 18.753906 11.796875 18.753906 L 13.988281 18.753906 L 13.988281 16.929688 "/>
<path style=" stroke:none;fill-rule:nonzero;fill:rgb(56.858826%,72.158813%,98.429871%);fill-opacity:1;" d="M 9.605469 11.089844 C 9.734375 11.089844 9.855469 11.101562 9.972656 11.125 C 9.136719 11.292969 8.511719 12.027344 8.511719 12.914062 L 8.511719 14.742188 C 8.511719 16.964844 10.304688 18.753906 12.527344 18.753906 L 11.796875 18.753906 C 9.574219 18.753906 7.78125 16.964844 7.78125 14.742188 L 7.78125 12.914062 C 7.78125 11.902344 8.597656 11.089844 9.605469 11.089844 "/>
<path style=" stroke:none;fill-rule:nonzero;fill:rgb(76.858521%,86.268616%,94.119263%);fill-opacity:1;" d="M 8.152344 11.824219 C 7.921875 12.125 7.78125 12.5 7.78125 12.914062 L 7.78125 14.742188 C 7.78125 16.964844 9.574219 18.753906 11.796875 18.753906 L 13.625 18.753906 L 13.625 19.121094 L 11.429688 19.121094 C 9.207031 19.121094 7.417969 17.328125 7.417969 15.105469 L 7.417969 13.277344 C 7.417969 12.679688 7.707031 12.15625 8.152344 11.824219 "/>
<g clip-path="url(#clip7)" clip-rule="nonzero">
<path style=" stroke:none;fill-rule:nonzero;fill:rgb(97.24884%,97.24884%,97.24884%);fill-opacity:1;" d="M 13.988281 18.753906 C 15.808594 18.753906 17.273438 20.222656 17.273438 22.042969 C 17.273438 23.863281 15.808594 25.328125 13.988281 25.328125 L 13.257812 25.328125 C 15.078125 25.328125 16.542969 23.863281 16.542969 22.042969 C 16.542969 20.222656 15.078125 18.753906 13.257812 18.753906 L 13.988281 18.753906 "/>
</g>
<path style=" stroke:none;fill-rule:nonzero;fill:rgb(97.24884%,97.24884%,97.24884%);fill-opacity:1;" d="M 9.605469 11.089844 C 10.617188 11.089844 11.433594 11.902344 11.433594 12.914062 L 11.433594 15.105469 C 11.433594 15.710938 11.921875 16.199219 12.527344 16.199219 L 11.796875 16.199219 C 11.191406 16.199219 10.703125 15.710938 10.703125 15.105469 L 10.703125 12.914062 C 10.703125 12.027344 10.078125 11.292969 9.242188 11.125 C 9.359375 11.101562 9.480469 11.089844 9.605469 11.089844 "/>
<path style=" stroke:none;fill-rule:nonzero;fill:rgb(97.24884%,97.24884%,97.24884%);fill-opacity:1;" d="M 12.527344 16.199219 L 13.257812 16.199219 C 13.664062 16.199219 13.988281 16.523438 13.988281 16.929688 L 13.988281 18.753906 L 13.257812 18.753906 L 13.257812 16.929688 C 13.257812 16.523438 12.933594 16.199219 12.527344 16.199219 "/>
<path style=" stroke:none;fill-rule:nonzero;fill:rgb(97.24884%,97.24884%,97.24884%);fill-opacity:1;" d="M 9.972656 4.152344 C 11.109375 4.152344 12.066406 4.882812 12.398438 5.902344 C 12.058594 6.371094 11.105469 6.707031 9.972656 6.707031 C 9.847656 6.707031 9.726562 6.703125 9.605469 6.695312 C 10.574219 6.628906 11.367188 6.320312 11.667969 5.902344 C 11.371094 4.992188 10.578125 4.320312 9.605469 4.179688 C 9.726562 4.164062 9.847656 4.152344 9.972656 4.152344 "/>
<g clip-path="url(#clip8)" clip-rule="nonzero">
<path style=" stroke:none;fill-rule:nonzero;fill:rgb(39.99939%,62.748718%,99.609375%);fill-opacity:1;" d="M 9.972656 3.785156 C 11.59375 3.785156 12.894531 5.089844 12.894531 6.695312 L 12.894531 7.085938 C 12.894531 8.164062 12.3125 9.101562 11.4375 9.605469 C 12.515625 10.140625 13.257812 11.25 13.257812 12.550781 L 13.257812 15.835938 C 13.75 15.835938 14.175781 16.160156 14.308594 16.621094 L 15.886719 16.9375 C 16.136719 16.988281 16.378906 17.089844 16.578125 17.269531 C 16.773438 17.453125 16.910156 17.707031 16.910156 18.027344 C 16.910156 18.519531 16.582031 18.945312 16.121094 19.074219 C 16.941406 19.660156 17.515625 20.601562 17.621094 21.675781 L 23.117188 21.675781 C 23.265625 21.675781 23.367188 21.761719 23.421875 21.839844 L 25.609375 25.125 C 25.773438 25.367188 25.597656 25.691406 25.308594 25.691406 L 4.859375 25.691406 C 4.261719 25.691406 3.765625 25.207031 3.765625 24.597656 C 3.765625 23.992188 4.253906 23.503906 4.859375 23.503906 L 5.226562 23.503906 C 5.425781 23.503906 5.589844 23.347656 5.589844 23.136719 C 5.589844 22.496094 6.003906 21.945312 6.582031 21.753906 C 6.195312 21.355469 5.957031 20.820312 5.957031 20.214844 C 5.957031 17.527344 5.957031 13.019531 5.957031 12.550781 C 5.957031 11.078125 6.914062 9.84375 8.230469 9.421875 C 7.511719 8.890625 7.050781 8.042969 7.050781 7.085938 L 7.050781 6.695312 C 7.050781 5.089844 8.351562 3.785156 9.972656 3.785156 Z M 9.972656 4.515625 C 9.074219 4.515625 8.304688 5.050781 7.964844 5.816406 C 8.265625 6.070312 8.957031 6.34375 9.972656 6.34375 C 10.988281 6.34375 11.675781 6.070312 11.980469 5.816406 C 11.640625 5.050781 10.871094 4.515625 9.972656 4.515625 Z M 12.15625 6.578125 C 11.574219 6.917969 10.75 7.074219 9.972656 7.074219 C 9.195312 7.074219 8.371094 6.917969 7.789062 6.578125 C 7.78125 6.605469 7.78125 6.652344 7.78125 6.695312 L 7.78125 7.085938 C 7.78125 8.296875 8.761719 9.261719 9.972656 9.261719 C 11.183594 9.261719 12.160156 8.296875 12.160156 7.085938 L 12.160156 6.695312 C 12.160156 6.652344 12.160156 6.605469 12.15625 6.578125 Z M 9.972656 9.992188 L 9.242188 9.992188 C 7.820312 9.992188 6.6875 11.136719 6.6875 12.550781 C 6.6875 14.457031 6.6875 17 6.6875 20.214844 C 6.6875 21.019531 7.332031 21.675781 8.148438 21.675781 C 10.09375 21.675781 12.042969 21.675781 13.988281 21.675781 C 14.476562 21.675781 14.476562 22.40625 13.988281 22.40625 C 12.40625 22.40625 10.820312 22.40625 9.238281 22.40625 C 9.03125 22.410156 8.878906 22.570312 8.878906 22.773438 L 8.878906 24.597656 C 8.878906 24.804688 9.042969 24.960938 9.242188 24.960938 L 13.988281 24.960938 C 15.601562 24.960938 16.910156 23.664062 16.910156 22.042969 C 16.910156 20.429688 15.613281 19.121094 13.988281 19.121094 L 11.796875 19.121094 C 9.378906 19.121094 7.417969 17.171875 7.417969 14.738281 L 7.417969 12.914062 C 7.417969 11.707031 8.386719 10.722656 9.609375 10.722656 C 10.828125 10.722656 11.796875 11.707031 11.796875 12.914062 C 11.796875 13.644531 11.796875 14.375 11.796875 15.101562 C 11.796875 15.507812 12.121094 15.835938 12.527344 15.835938 L 12.527344 12.550781 C 12.527344 11.140625 11.394531 9.992188 9.972656 9.992188 Z M 9.609375 11.453125 C 8.804688 11.453125 8.148438 12.101562 8.148438 12.914062 L 8.148438 14.738281 C 8.148438 16.753906 9.769531 18.390625 11.796875 18.390625 C 12.40625 18.390625 13.015625 18.390625 13.625 18.390625 L 13.625 16.929688 C 13.625 16.730469 13.464844 16.566406 13.257812 16.566406 L 12.527344 16.566406 C 11.722656 16.566406 11.066406 15.917969 11.066406 15.101562 C 11.066406 14.375 11.066406 13.644531 11.066406 12.914062 C 11.066406 12.101562 10.414062 11.453125 9.609375 11.453125 Z M 14.355469 17.378906 L 14.355469 18.390625 L 15.8125 18.390625 C 16.019531 18.390625 16.179688 18.222656 16.179688 18.027344 C 16.179688 17.789062 15.914062 17.6875 15.742188 17.652344 Z M 17.621094 22.40625 C 17.519531 23.453125 16.980469 24.367188 16.183594 24.960938 L 24.625 24.960938 L 22.921875 22.40625 Z M 8.210938 22.40625 L 7.050781 22.40625 C 6.648438 22.40625 6.320312 22.726562 6.320312 23.136719 C 6.320312 23.75 5.828125 24.230469 5.226562 24.230469 L 4.859375 24.230469 C 4.652344 24.230469 4.496094 24.402344 4.496094 24.597656 C 4.496094 24.796875 4.652344 24.960938 4.859375 24.960938 L 8.210938 24.960938 C 8.167969 24.847656 8.148438 24.726562 8.148438 24.597656 L 8.148438 22.773438 C 8.148438 22.640625 8.167969 22.523438 8.210938 22.40625 "/>
</g>
</g>
</svg>
