<?xml version="1.0" encoding="UTF-8"?>
<svg xmlns="http://www.w3.org/2000/svg" xmlns:xlink="http://www.w3.org/1999/xlink" width="30pt" height="30.000001pt" viewBox="0 0 30 30.000001" version="1.2">
<defs>
<clipPath id="clip1">
  <path d="M 8 2.902344 L 16 2.902344 L 16 6 L 8 6 Z M 8 2.902344 "/>
</clipPath>
<clipPath id="clip2">
  <path d="M 7 20 L 22 20 L 22 26.128906 L 7 26.128906 Z M 7 20 "/>
</clipPath>
</defs>
<g id="surface1">
<path style=" stroke:none;fill-rule:nonzero;fill:rgb(100%,100%,100%);fill-opacity:1;" d="M 13.082031 24.234375 L 11.53125 24.234375 C 10.351562 24.234375 9.296875 23.492188 8.894531 22.378906 C 8.140625 20.289062 7.207031 16.761719 7.984375 13.574219 C 8.339844 12.113281 9.664062 11.089844 11.167969 11.089844 C 12.605469 11.089844 13.875 12.03125 14.300781 13.40625 L 16.703125 21.414062 L 13.082031 24.234375 "/>
<g clip-path="url(#clip1)" clip-rule="nonzero">
<path style=" stroke:none;fill-rule:nonzero;fill:rgb(100%,100%,100%);fill-opacity:1;" d="M 8.601562 5.644531 C 8.925781 4.078125 10.308594 2.902344 11.96875 2.902344 C 13.414062 2.902344 14.652344 3.796875 15.160156 5.0625 L 8.601562 5.644531 "/>
</g>
<path style=" stroke:none;fill-rule:nonzero;fill:rgb(100%,100%,100%);fill-opacity:1;" d="M 15.332031 5.621094 C 15.382812 5.855469 15.410156 6.097656 15.410156 6.347656 C 15.410156 8.25 13.867188 9.792969 11.96875 9.792969 C 10.066406 9.792969 8.527344 8.25 8.527344 6.347656 C 8.527344 6.304688 8.527344 6.265625 8.53125 6.222656 L 15.332031 5.621094 "/>
<g clip-path="url(#clip2)" clip-rule="nonzero">
<path style=" stroke:none;fill-rule:nonzero;fill:rgb(100%,100%,100%);fill-opacity:1;" d="M 8.664062 23.191406 C 9.265625 24.175781 10.351562 24.804688 11.53125 24.804688 L 13.277344 24.804688 L 17.359375 21.621094 L 16.980469 20.351562 L 18.613281 20.683594 C 23.332031 21.640625 20.78125 26.128906 17.484375 26.128906 L 7.691406 26.128906 C 7.691406 26.128906 6.710938 24.882812 8.664062 23.191406 "/>
</g>
<path style=" stroke:none;fill-rule:nonzero;fill:rgb(100%,100%,100%);fill-opacity:1;" d="M 14.84375 13.242188 C 14.667969 12.675781 14.375 12.175781 13.992188 11.761719 C 14.230469 11.863281 14.472656 11.984375 14.722656 12.121094 C 15.335938 12.460938 15.792969 13.027344 16.015625 13.691406 L 17.125 17.03125 C 17.421875 17.921875 17.253906 18.871094 16.75 19.585938 L 14.84375 13.242188 "/>
</g>
</svg>
