<?xml version="1.0" encoding="UTF-8"?>
<svg xmlns="http://www.w3.org/2000/svg" xmlns:xlink="http://www.w3.org/1999/xlink" width="30pt" height="30.000001pt" viewBox="0 0 30 30.000001" version="1.2">
<defs>
<clipPath id="clip1">
  <path d="M 3.386719 3 L 26.613281 3 L 26.613281 26.128906 L 3.386719 26.128906 Z M 3.386719 3 "/>
</clipPath>
</defs>
<g id="surface1">
<path style=" stroke:none;fill-rule:nonzero;fill:rgb(100%,100%,100%);fill-opacity:1;" d="M 4.527344 11.984375 L 5.042969 11.960938 L 5.042969 12.8125 L 4.527344 12.808594 Z M 4.355469 13.148438 L 5.210938 13.15625 C 5.257812 13.15625 5.300781 13.136719 5.332031 13.105469 C 5.363281 13.074219 5.382812 13.03125 5.382812 12.984375 L 5.382812 11.785156 C 5.382812 11.738281 5.363281 11.695312 5.328125 11.660156 C 5.296875 11.628906 5.25 11.609375 5.207031 11.613281 L 4.347656 11.652344 C 4.257812 11.65625 4.1875 11.730469 4.1875 11.824219 L 4.1875 12.980469 C 4.1875 13.074219 4.261719 13.148438 4.355469 13.148438 "/>
<path style=" stroke:none;fill-rule:nonzero;fill:rgb(100%,100%,100%);fill-opacity:1;" d="M 6.085938 11.914062 L 6.726562 11.886719 L 6.726562 12.824219 L 6.085938 12.824219 Z M 5.914062 13.160156 L 6.898438 13.167969 C 6.945312 13.167969 6.984375 13.148438 7.019531 13.117188 C 7.050781 13.085938 7.066406 13.042969 7.066406 12.996094 L 7.066406 11.707031 C 7.066406 11.660156 7.050781 11.617188 7.015625 11.585938 C 6.984375 11.550781 6.9375 11.535156 6.890625 11.539062 L 5.90625 11.582031 C 5.816406 11.585938 5.742188 11.660156 5.742188 11.753906 L 5.742188 12.992188 C 5.742188 13.085938 5.816406 13.160156 5.914062 13.160156 "/>
<path style=" stroke:none;fill-rule:nonzero;fill:rgb(100%,100%,100%);fill-opacity:1;" d="M 7.878906 11.832031 L 8.683594 11.796875 L 8.683594 12.839844 L 7.878906 12.835938 Z M 7.707031 13.171875 L 8.851562 13.183594 C 8.894531 13.183594 8.9375 13.164062 8.96875 13.132812 C 9.003906 13.101562 9.023438 13.058594 9.023438 13.011719 L 9.023438 11.621094 C 9.023438 11.574219 9.003906 11.527344 8.96875 11.496094 C 8.933594 11.464844 8.890625 11.445312 8.84375 11.449219 L 7.699219 11.5 C 7.609375 11.507812 7.539062 11.582031 7.539062 11.671875 L 7.539062 13.003906 C 7.539062 13.097656 7.613281 13.171875 7.707031 13.171875 "/>
<path style=" stroke:none;fill-rule:nonzero;fill:rgb(100%,100%,100%);fill-opacity:1;" d="M 9.96875 11.738281 L 10.972656 11.695312 L 10.972656 12.859375 L 9.96875 12.851562 Z M 9.796875 13.1875 L 11.140625 13.199219 C 11.140625 13.199219 11.140625 13.199219 11.144531 13.199219 C 11.1875 13.199219 11.230469 13.183594 11.261719 13.148438 C 11.292969 13.117188 11.3125 13.074219 11.3125 13.03125 L 11.3125 11.515625 C 11.3125 11.46875 11.292969 11.425781 11.261719 11.390625 C 11.226562 11.359375 11.1875 11.339844 11.132812 11.347656 L 9.792969 11.40625 C 9.699219 11.410156 9.628906 11.488281 9.628906 11.578125 L 9.628906 13.019531 C 9.628906 13.113281 9.703125 13.1875 9.796875 13.1875 "/>
<path style=" stroke:none;fill-rule:nonzero;fill:rgb(100%,100%,100%);fill-opacity:1;" d="M 12.433594 11.628906 L 13.695312 11.570312 L 13.695312 12.878906 L 12.433594 12.867188 Z M 12.261719 13.207031 L 13.863281 13.21875 C 13.867188 13.21875 13.867188 13.21875 13.867188 13.21875 C 13.914062 13.21875 13.957031 13.203125 13.988281 13.167969 C 14.019531 13.136719 14.035156 13.09375 14.035156 13.050781 L 14.035156 11.390625 C 14.035156 11.347656 14.015625 11.300781 13.984375 11.269531 C 13.953125 11.238281 13.914062 11.21875 13.859375 11.222656 L 12.257812 11.296875 C 12.164062 11.296875 12.09375 11.375 12.09375 11.464844 L 12.09375 13.035156 C 12.09375 13.128906 12.167969 13.207031 12.261719 13.207031 "/>
<g clip-path="url(#clip1)" clip-rule="nonzero">
<path style=" stroke:none;fill-rule:nonzero;fill:rgb(100%,100%,100%);fill-opacity:1;" d="M 26.25 8.578125 L 15.203125 6.527344 L 15.203125 3.484375 L 26.25 6.804688 Z M 26.25 10.003906 L 15.203125 8.792969 L 15.203125 6.871094 L 26.25 8.925781 Z M 26.25 14.46875 C 25.871094 17.433594 25.351562 18.246094 25.101562 18.246094 C 25.101562 18.246094 25.097656 18.246094 25.097656 18.246094 C 24.855469 18.246094 24.328125 17.449219 23.90625 14.453125 C 23.902344 14.449219 23.898438 14.441406 23.898438 14.433594 C 23.894531 14.421875 23.890625 14.410156 23.886719 14.402344 C 23.882812 14.390625 23.875 14.382812 23.871094 14.375 C 23.863281 14.367188 23.855469 14.359375 23.847656 14.351562 C 23.839844 14.34375 23.832031 14.335938 23.820312 14.332031 C 23.816406 14.328125 23.804688 14.324219 23.796875 14.320312 C 23.785156 14.316406 23.773438 14.3125 23.761719 14.3125 C 23.757812 14.308594 23.753906 14.308594 23.746094 14.308594 C 23.742188 14.308594 23.738281 14.308594 23.734375 14.308594 C 23.726562 14.308594 23.71875 14.308594 23.710938 14.308594 C 23.703125 14.308594 23.699219 14.316406 23.691406 14.316406 C 23.6875 14.316406 23.683594 14.316406 23.679688 14.320312 C 23.664062 14.328125 23.648438 14.332031 23.632812 14.34375 C 23.628906 14.347656 23.628906 14.351562 23.625 14.351562 C 23.613281 14.363281 23.605469 14.371094 23.59375 14.386719 C 23.589844 14.394531 23.585938 14.402344 23.582031 14.410156 C 23.578125 14.421875 23.574219 14.429688 23.570312 14.445312 C 23.570312 14.449219 23.566406 14.449219 23.566406 14.453125 C 23.09375 17.859375 22.402344 19.074219 21.953125 19.082031 C 21.953125 19.082031 21.949219 19.082031 21.949219 19.082031 C 21.503906 19.082031 20.835938 17.925781 20.300781 14.679688 C 20.292969 14.648438 20.277344 14.621094 20.257812 14.601562 C 20.253906 14.597656 20.25 14.59375 20.246094 14.585938 C 20.21875 14.5625 20.1875 14.546875 20.152344 14.542969 C 20.148438 14.542969 20.148438 14.539062 20.144531 14.539062 C 20.132812 14.535156 20.125 14.539062 20.113281 14.542969 C 20.109375 14.542969 20.109375 14.539062 20.101562 14.539062 C 20.101562 14.542969 20.097656 14.542969 20.09375 14.542969 C 20.082031 14.546875 20.066406 14.550781 20.054688 14.558594 C 20.046875 14.5625 20.039062 14.5625 20.035156 14.566406 C 20.023438 14.578125 20.011719 14.589844 20 14.601562 C 19.996094 14.605469 19.996094 14.605469 19.992188 14.613281 C 19.980469 14.628906 19.972656 14.644531 19.96875 14.664062 C 19.964844 14.664062 19.964844 14.667969 19.964844 14.667969 C 19.964844 14.671875 19.960938 14.675781 19.960938 14.679688 C 19.296875 18.765625 18.308594 20.234375 17.601562 20.246094 C 17.597656 20.246094 17.59375 20.246094 17.589844 20.246094 C 16.746094 20.246094 15.855469 18.347656 15.203125 15.15625 L 15.203125 9.136719 L 26.25 10.347656 Z M 26.25 17.246094 C 26.027344 18.695312 25.503906 19.648438 25.125 19.804688 C 25.023438 19.835938 24.929688 19.816406 24.832031 19.746094 C 24.394531 19.449219 24.039062 18.335938 23.90625 16.863281 L 23.90625 16.398438 C 24.238281 17.847656 24.636719 18.585938 25.097656 18.585938 C 25.101562 18.585938 25.101562 18.585938 25.105469 18.585938 C 25.558594 18.582031 25.941406 17.890625 26.25 16.527344 Z M 20.285156 16.730469 C 20.285156 16.726562 20.285156 16.726562 20.285156 16.726562 L 20.285156 16.402344 C 20.746094 18.40625 21.304688 19.421875 21.949219 19.421875 C 21.953125 19.421875 21.953125 19.421875 21.957031 19.421875 C 22.707031 19.414062 23.222656 18.042969 23.566406 16.445312 L 23.566406 16.851562 C 23.394531 18.992188 22.78125 20.574219 22.023438 20.878906 C 21.863281 20.925781 21.710938 20.894531 21.554688 20.789062 C 20.925781 20.347656 20.425781 18.757812 20.285156 16.730469 Z M 26.25 22.230469 L 15.203125 25.550781 L 15.203125 19.867188 C 15.542969 21.132812 16.058594 22.0625 16.691406 22.488281 C 16.941406 22.652344 17.203125 22.738281 17.472656 22.738281 C 17.605469 22.738281 17.742188 22.71875 17.886719 22.675781 C 19.101562 22.199219 19.804688 20.207031 20.117188 18.210938 C 20.367188 19.636719 20.8125 20.683594 21.359375 21.066406 C 21.523438 21.179688 21.695312 21.238281 21.875 21.238281 C 21.960938 21.238281 22.046875 21.226562 22.136719 21.199219 C 22.878906 20.902344 23.453125 19.789062 23.746094 18.128906 C 23.945312 19.089844 24.253906 19.761719 24.640625 20.027344 C 24.761719 20.113281 24.894531 20.15625 25.035156 20.15625 C 25.097656 20.15625 25.167969 20.144531 25.238281 20.125 C 25.617188 19.96875 25.980469 19.429688 26.25 18.675781 Z M 15.203125 16.675781 C 15.730469 18.707031 16.507812 20.585938 17.589844 20.585938 C 17.597656 20.585938 17.605469 20.585938 17.609375 20.585938 C 18.535156 20.570312 19.347656 19.152344 19.945312 16.550781 L 19.945312 16.714844 C 19.753906 19.652344 18.875 21.921875 17.773438 22.355469 C 17.46875 22.445312 17.167969 22.398438 16.878906 22.203125 C 16.066406 21.65625 15.429688 20.042969 15.203125 17.972656 Z M 14.816406 6.527344 L 3.773438 8.578125 L 3.773438 6.804688 L 14.816406 3.484375 Z M 14.816406 8.792969 L 3.773438 10.003906 L 3.773438 8.925781 L 14.816406 6.871094 Z M 14.816406 15.15625 C 14.167969 18.347656 13.277344 20.246094 12.429688 20.246094 C 12.425781 20.246094 12.421875 20.246094 12.417969 20.246094 C 11.714844 20.234375 10.722656 18.765625 10.058594 14.679688 C 10.058594 14.675781 10.058594 14.671875 10.058594 14.667969 C 10.058594 14.667969 10.054688 14.664062 10.054688 14.664062 C 10.050781 14.644531 10.039062 14.625 10.03125 14.613281 C 10.027344 14.609375 10.023438 14.605469 10.019531 14.601562 C 10.011719 14.589844 10 14.578125 9.984375 14.566406 C 9.980469 14.5625 9.976562 14.5625 9.96875 14.558594 C 9.957031 14.550781 9.941406 14.546875 9.925781 14.542969 C 9.921875 14.542969 9.921875 14.542969 9.917969 14.539062 C 9.914062 14.539062 9.910156 14.542969 9.90625 14.542969 C 9.898438 14.539062 9.886719 14.535156 9.878906 14.539062 C 9.875 14.539062 9.871094 14.542969 9.867188 14.542969 C 9.832031 14.546875 9.800781 14.5625 9.773438 14.585938 C 9.773438 14.59375 9.769531 14.597656 9.765625 14.601562 C 9.746094 14.621094 9.730469 14.648438 9.722656 14.679688 C 9.183594 17.925781 8.519531 19.082031 8.070312 19.082031 C 7.621094 19.074219 6.925781 17.859375 6.453125 14.453125 C 6.453125 14.449219 6.449219 14.449219 6.449219 14.449219 C 6.445312 14.410156 6.425781 14.375 6.394531 14.351562 C 6.390625 14.351562 6.390625 14.347656 6.386719 14.34375 C 6.367188 14.328125 6.339844 14.3125 6.308594 14.308594 C 6.296875 14.308594 6.289062 14.308594 6.28125 14.308594 C 6.277344 14.308594 6.277344 14.308594 6.273438 14.308594 C 6.269531 14.308594 6.265625 14.308594 6.257812 14.3125 C 6.246094 14.3125 6.234375 14.316406 6.222656 14.320312 C 6.214844 14.324219 6.207031 14.328125 6.199219 14.332031 C 6.191406 14.335938 6.179688 14.34375 6.171875 14.351562 C 6.164062 14.359375 6.15625 14.367188 6.152344 14.375 C 6.144531 14.382812 6.140625 14.390625 6.136719 14.402344 C 6.128906 14.410156 6.125 14.421875 6.121094 14.433594 C 6.121094 14.441406 6.117188 14.445312 6.117188 14.453125 C 5.695312 17.449219 5.167969 18.246094 4.921875 18.246094 C 4.667969 18.246094 4.148438 17.433594 3.773438 14.46875 L 3.773438 10.347656 L 14.816406 9.136719 Z M 14.816406 17.972656 C 14.589844 20.042969 13.957031 21.65625 13.140625 22.203125 C 12.855469 22.398438 12.554688 22.445312 12.257812 22.359375 C 11.148438 21.921875 10.269531 19.652344 10.078125 16.722656 L 10.078125 16.550781 C 10.671875 19.152344 11.484375 20.570312 12.414062 20.585938 C 12.417969 20.585938 12.425781 20.585938 12.429688 20.585938 C 13.511719 20.585938 14.292969 18.703125 14.816406 16.671875 Z M 6.453125 16.863281 L 6.453125 16.449219 C 6.800781 18.042969 7.316406 19.414062 8.0625 19.421875 C 8.066406 19.421875 8.070312 19.421875 8.070312 19.421875 C 8.714844 19.421875 9.273438 18.40625 9.734375 16.398438 L 9.738281 16.730469 C 9.597656 18.757812 9.097656 20.347656 8.464844 20.789062 C 8.3125 20.894531 8.160156 20.925781 8.011719 20.882812 C 7.238281 20.574219 6.628906 18.992188 6.453125 16.863281 Z M 14.816406 25.550781 L 3.773438 22.230469 L 3.773438 18.675781 C 4.042969 19.429688 4.410156 19.972656 4.800781 20.132812 C 4.863281 20.148438 4.921875 20.160156 4.984375 20.160156 C 5.121094 20.160156 5.253906 20.113281 5.378906 20.027344 C 5.765625 19.765625 6.074219 19.09375 6.273438 18.128906 C 6.566406 19.785156 7.144531 20.902344 7.898438 21.203125 C 7.980469 21.230469 8.0625 21.238281 8.140625 21.238281 C 8.320312 21.238281 8.496094 21.183594 8.660156 21.066406 C 9.210938 20.683594 9.65625 19.640625 9.902344 18.210938 C 10.214844 20.203125 10.921875 22.199219 12.148438 22.679688 C 12.28125 22.71875 12.417969 22.742188 12.546875 22.742188 C 12.816406 22.742188 13.078125 22.65625 13.328125 22.488281 C 13.960938 22.0625 14.480469 21.132812 14.816406 19.867188 Z M 3.773438 16.527344 C 4.078125 17.890625 4.460938 18.582031 4.917969 18.585938 C 4.917969 18.585938 4.917969 18.585938 4.921875 18.585938 C 5.382812 18.585938 5.785156 17.847656 6.117188 16.394531 L 6.117188 16.851562 C 5.980469 18.335938 5.625 19.449219 5.1875 19.746094 C 5.089844 19.816406 4.996094 19.832031 4.914062 19.8125 C 4.515625 19.648438 3.992188 18.695312 3.773438 17.246094 Z M 15.066406 3.042969 C 15.0625 3.042969 15.058594 3.042969 15.054688 3.042969 C 15.039062 3.039062 15.027344 3.039062 15.011719 3.039062 C 14.996094 3.039062 14.980469 3.039062 14.96875 3.042969 C 14.964844 3.042969 14.960938 3.042969 14.953125 3.042969 L 3.523438 6.480469 C 3.441406 6.503906 3.386719 6.578125 3.386719 6.664062 L 3.386719 22.375 C 3.386719 22.457031 3.441406 22.53125 3.523438 22.558594 L 14.953125 25.992188 C 14.972656 26 14.992188 26.003906 15.011719 26.003906 C 15.027344 26.003906 15.046875 26 15.066406 25.992188 L 26.496094 22.558594 C 26.578125 22.53125 26.632812 22.457031 26.632812 22.375 L 26.632812 6.664062 C 26.632812 6.578125 26.578125 6.503906 26.496094 6.480469 L 15.066406 3.042969 "/>
</g>
<path style=" stroke:none;fill-rule:nonzero;fill:rgb(100%,100%,100%);fill-opacity:1;" d="M 24.980469 11.960938 L 25.496094 11.984375 L 25.496094 12.808594 L 24.980469 12.8125 Z M 24.808594 13.15625 L 25.667969 13.148438 C 25.761719 13.148438 25.835938 13.074219 25.835938 12.980469 L 25.835938 11.824219 C 25.835938 11.730469 25.765625 11.65625 25.671875 11.652344 L 24.816406 11.613281 C 24.769531 11.609375 24.726562 11.628906 24.691406 11.660156 C 24.65625 11.695312 24.636719 11.738281 24.636719 11.785156 L 24.636719 12.984375 C 24.636719 13.03125 24.65625 13.074219 24.691406 13.105469 C 24.722656 13.136719 24.765625 13.15625 24.808594 13.15625 "/>
<path style=" stroke:none;fill-rule:nonzero;fill:rgb(100%,100%,100%);fill-opacity:1;" d="M 23.292969 11.886719 L 23.9375 11.914062 L 23.9375 12.824219 L 23.292969 12.824219 Z M 23.125 13.167969 L 24.109375 13.160156 C 24.203125 13.160156 24.277344 13.085938 24.277344 12.992188 L 24.277344 11.753906 C 24.277344 11.660156 24.207031 11.585938 24.117188 11.582031 L 23.128906 11.539062 C 23.085938 11.535156 23.039062 11.550781 23.007812 11.585938 C 22.972656 11.617188 22.953125 11.660156 22.953125 11.707031 L 22.953125 12.996094 C 22.953125 13.042969 22.972656 13.085938 23.003906 13.117188 C 23.035156 13.148438 23.078125 13.167969 23.125 13.167969 "/>
<path style=" stroke:none;fill-rule:nonzero;fill:rgb(100%,100%,100%);fill-opacity:1;" d="M 21.339844 11.796875 L 22.144531 11.832031 L 22.144531 12.835938 L 21.339844 12.839844 Z M 21.167969 13.183594 C 21.171875 13.183594 21.171875 13.183594 21.171875 13.183594 L 22.3125 13.171875 C 22.40625 13.171875 22.484375 13.097656 22.484375 13.003906 L 22.484375 11.671875 C 22.484375 11.582031 22.410156 11.507812 22.320312 11.5 L 21.179688 11.449219 C 21.128906 11.445312 21.085938 11.464844 21.050781 11.496094 C 21.019531 11.527344 21 11.574219 21 11.621094 L 21 13.011719 C 21 13.058594 21.019531 13.101562 21.050781 13.132812 C 21.082031 13.164062 21.125 13.183594 21.167969 13.183594 "/>
<path style=" stroke:none;fill-rule:nonzero;fill:rgb(100%,100%,100%);fill-opacity:1;" d="M 19.050781 11.695312 L 20.050781 11.738281 L 20.050781 12.851562 L 19.050781 12.859375 Z M 18.878906 13.199219 L 20.222656 13.1875 C 20.316406 13.1875 20.394531 13.113281 20.394531 13.019531 L 20.394531 11.578125 C 20.394531 11.488281 20.320312 11.410156 20.230469 11.40625 L 18.886719 11.347656 C 18.839844 11.34375 18.792969 11.359375 18.761719 11.390625 C 18.726562 11.425781 18.710938 11.46875 18.710938 11.515625 L 18.710938 13.03125 C 18.710938 13.074219 18.726562 13.117188 18.757812 13.148438 C 18.789062 13.183594 18.832031 13.199219 18.878906 13.199219 "/>
<path style=" stroke:none;fill-rule:nonzero;fill:rgb(100%,100%,100%);fill-opacity:1;" d="M 16.324219 11.570312 L 17.585938 11.628906 L 17.585938 12.867188 L 16.324219 12.878906 Z M 16.152344 13.21875 C 16.152344 13.21875 16.152344 13.21875 16.15625 13.21875 L 17.757812 13.207031 C 17.851562 13.207031 17.929688 13.128906 17.929688 13.035156 L 17.929688 11.464844 C 17.929688 11.375 17.855469 11.296875 17.765625 11.296875 L 16.160156 11.222656 C 16.117188 11.21875 16.070312 11.238281 16.039062 11.269531 C 16.003906 11.300781 15.984375 11.347656 15.984375 11.390625 L 15.984375 13.050781 C 15.984375 13.09375 16 13.136719 16.035156 13.167969 C 16.066406 13.203125 16.109375 13.21875 16.152344 13.21875 "/>
</g>
</svg>
