<?xml version="1.0" encoding="UTF-8"?>
<svg xmlns="http://www.w3.org/2000/svg" xmlns:xlink="http://www.w3.org/1999/xlink" width="30pt" height="30.000001pt" viewBox="0 0 30 30.000001" version="1.2">
<defs>
<clipPath id="clip1">
  <path d="M 9.511719 7 L 20.398438 7 L 20.398438 27 L 9.511719 27 Z M 9.511719 7 "/>
</clipPath>
<clipPath id="clip2">
  <path d="M 11 26 L 15 26 L 15 27.582031 L 11 27.582031 Z M 11 26 "/>
</clipPath>
<clipPath id="clip3">
  <path d="M 15 26 L 19 26 L 19 27.582031 L 15 27.582031 Z M 15 26 "/>
</clipPath>
<clipPath id="clip4">
  <path d="M 12 1.453125 L 18 1.453125 L 18 5 L 12 5 Z M 12 1.453125 "/>
</clipPath>
</defs>
<g id="surface1">
<g clip-path="url(#clip1)" clip-rule="nonzero">
<path style=" stroke:none;fill-rule:nonzero;fill:rgb(95.289612%,96.078491%,96.469116%);fill-opacity:1;" d="M 10.628906 17.960938 C 10.644531 17.960938 10.660156 17.960938 10.679688 17.960938 C 10.75 17.957031 10.816406 17.941406 10.882812 17.921875 C 10.90625 17.535156 10.921875 17.164062 10.921875 16.804688 C 10.921875 11.859375 11.769531 10.59375 11.769531 10.59375 L 11.894531 10.59375 C 11.667969 11.261719 11.28125 12.914062 11.28125 16.417969 C 11.28125 18.671875 10.792969 21.328125 10.671875 25.46875 C 11.652344 26.34375 14.957031 26.238281 14.957031 26.238281 C 14.957031 26.238281 18.261719 26.34375 19.242188 25.46875 C 19.121094 21.328125 18.632812 18.671875 18.632812 16.417969 C 18.632812 12.914062 18.246094 11.261719 18.019531 10.59375 L 18.144531 10.59375 C 18.144531 10.59375 18.992188 11.859375 18.992188 16.804688 C 18.992188 17.164062 19.007812 17.535156 19.03125 17.921875 C 19.097656 17.941406 19.164062 17.957031 19.238281 17.960938 C 19.253906 17.960938 19.269531 17.960938 19.285156 17.960938 C 19.726562 17.960938 20.09375 17.617188 20.121094 17.167969 C 20.378906 12.722656 19.824219 9.824219 18.480469 8.546875 C 17.894531 7.996094 17.324219 7.898438 17.027344 7.890625 C 17.011719 7.890625 16.992188 7.890625 16.976562 7.890625 L 12.9375 7.890625 C 12.921875 7.890625 12.90625 7.890625 12.886719 7.890625 C 12.59375 7.898438 12.023438 7.992188 11.433594 8.546875 C 10.089844 9.824219 9.535156 12.722656 9.792969 17.171875 C 9.820312 17.617188 10.1875 17.960938 10.628906 17.960938 Z M 14.957031 11.191406 C 15.117188 11.191406 15.246094 11.324219 15.246094 11.480469 C 15.246094 11.640625 15.117188 11.773438 14.957031 11.773438 C 14.796875 11.773438 14.667969 11.640625 14.667969 11.480469 C 14.667969 11.324219 14.796875 11.191406 14.957031 11.191406 Z M 15.246094 10.324219 C 15.246094 10.484375 15.117188 10.613281 14.957031 10.613281 C 14.796875 10.613281 14.667969 10.484375 14.667969 10.324219 C 14.667969 10.164062 14.796875 10.035156 14.957031 10.035156 C 15.117188 10.035156 15.246094 10.164062 15.246094 10.324219 Z M 14.957031 8.878906 C 15.117188 8.878906 15.246094 9.007812 15.246094 9.167969 C 15.246094 9.328125 15.117188 9.457031 14.957031 9.457031 C 14.796875 9.457031 14.667969 9.328125 14.667969 9.167969 C 14.667969 9.007812 14.796875 8.878906 14.957031 8.878906 Z M 14.957031 8.878906 "/>
</g>
<g clip-path="url(#clip2)" clip-rule="nonzero">
<path style=" stroke:none;fill-rule:nonzero;fill:rgb(95.289612%,96.078491%,96.469116%);fill-opacity:1;" d="M 12.71875 27.539062 C 13.328125 27.578125 13.867188 27.1875 14.039062 26.621094 C 13.332031 26.601562 12.347656 26.542969 11.519531 26.359375 C 11.574219 26.988281 12.078125 27.496094 12.71875 27.539062 Z M 12.71875 27.539062 "/>
</g>
<g clip-path="url(#clip3)" clip-rule="nonzero">
<path style=" stroke:none;fill-rule:nonzero;fill:rgb(95.289612%,96.078491%,96.469116%);fill-opacity:1;" d="M 17.195312 27.539062 C 17.835938 27.496094 18.339844 26.988281 18.394531 26.359375 C 17.566406 26.542969 16.582031 26.601562 15.875 26.621094 C 16.046875 27.1875 16.585938 27.578125 17.195312 27.539062 Z M 17.195312 27.539062 "/>
</g>
<g clip-path="url(#clip4)" clip-rule="nonzero">
<path style=" stroke:none;fill-rule:nonzero;fill:rgb(95.289612%,96.078491%,96.469116%);fill-opacity:1;" d="M 14.957031 3.730469 C 15.898438 3.730469 16.84375 3.929688 17.273438 4.367188 L 16.605469 1.988281 C 16.605469 1.988281 16.167969 1.453125 14.933594 1.453125 C 13.699219 1.453125 13.265625 1.988281 13.265625 1.988281 L 12.570312 4.441406 C 12.964844 3.953125 13.964844 3.730469 14.957031 3.730469 Z M 14.957031 3.730469 "/>
</g>
<path style=" stroke:none;fill-rule:nonzero;fill:rgb(95.289612%,96.078491%,96.469116%);fill-opacity:1;" d="M 12.605469 4.921875 C 12.605469 6.230469 13.660156 7.289062 14.957031 7.289062 C 16.253906 7.289062 17.308594 6.230469 17.308594 4.921875 C 17.308594 3.613281 12.605469 3.613281 12.605469 4.921875 Z M 14.957031 6.535156 C 14.335938 6.535156 13.792969 6.203125 13.492188 5.707031 L 16.421875 5.707031 C 16.121094 6.203125 15.578125 6.535156 14.957031 6.535156 Z M 14.957031 6.535156 "/>
</g>
</svg>
