<?xml version="1.0" encoding="UTF-8"?>
<svg xmlns="http://www.w3.org/2000/svg" xmlns:xlink="http://www.w3.org/1999/xlink" width="30pt" height="30.000001pt" viewBox="0 0 30 30.000001" version="1.2">
<defs>
<clipPath id="clip1">
  <path d="M 7.929688 1.453125 L 21.375 1.453125 L 21.375 27.582031 L 7.929688 27.582031 Z M 7.929688 1.453125 "/>
</clipPath>
</defs>
<g id="surface1">
<path style=" stroke:none;fill-rule:nonzero;fill:rgb(45.489502%,57.249451%,79.60968%);fill-opacity:1;" d="M 12.238281 20.296875 C 12.242188 19.847656 12.351562 11.304688 12.351562 11.304688 L 12.351562 6.191406 C 12.351562 6.191406 12.894531 6.023438 13.660156 6.046875 C 13.675781 6.101562 13.914062 6.921875 14.734375 6.957031 C 15.589844 6.921875 15.8125 6.039062 15.8125 6.039062 C 16.65625 6.015625 17.117188 6.183594 17.117188 6.183594 L 17.117188 11.289062 C 17.117188 11.289062 17.226562 19.832031 17.234375 20.28125 C 17.242188 20.730469 16.980469 20.789062 16.980469 20.789062 L 16.289062 20.789062 C 16.289062 20.789062 15.125 21.03125 14.726562 21.039062 C 14.296875 21.039062 13.003906 20.789062 13.003906 20.789062 L 12.480469 20.789062 C 12.488281 20.804688 12.230469 20.746094 12.238281 20.296875 Z M 16.773438 22.082031 L 12.691406 22.042969 L 9.671875 26.730469 L 19.632812 26.769531 Z M 16.773438 22.082031 "/>
<g clip-path="url(#clip1)" clip-rule="nonzero">
<path style=" stroke:none;fill-rule:nonzero;fill:rgb(76.469421%,59.999084%,41.958618%);fill-opacity:1;" d="M 15.25 5.089844 C 15.261719 5.113281 15.253906 5.136719 15.242188 5.152344 C 15.0625 5.289062 14.886719 5.339844 14.742188 5.339844 C 14.445312 5.339844 14.25 5.152344 14.246094 5.152344 C 14.230469 5.136719 14.222656 5.105469 14.238281 5.089844 C 14.25 5.074219 14.273438 5.066406 14.289062 5.082031 C 14.300781 5.097656 14.699219 5.460938 15.191406 5.082031 C 15.210938 5.058594 15.234375 5.066406 15.25 5.089844 Z M 21.351562 27.582031 L 7.953125 27.535156 L 12.011719 21.222656 L 17.5 21.277344 Z M 9.671875 26.730469 L 19.632812 26.769531 L 16.773438 22.082031 L 12.691406 22.042969 Z M 13.335938 3.09375 L 16.164062 3.09375 C 16.164062 3.09375 16.085938 1.480469 14.742188 1.46875 C 13.421875 1.453125 13.335938 3.09375 13.335938 3.09375 Z M 13.335938 3.09375 "/>
</g>
<path style=" stroke:none;fill-rule:nonzero;fill:rgb(0.389099%,0.389099%,0.389099%);fill-opacity:1;" d="M 16.136719 4.382812 C 16.136719 4.390625 16.128906 4.398438 16.128906 4.40625 C 16.128906 4.421875 16.121094 4.4375 16.121094 4.453125 C 16.121094 4.460938 16.113281 4.476562 16.113281 4.480469 C 16.113281 4.496094 16.109375 4.503906 16.101562 4.519531 C 16.101562 4.527344 16.09375 4.542969 16.09375 4.550781 C 16.085938 4.566406 16.085938 4.574219 16.078125 4.589844 C 16.070312 4.597656 16.070312 4.613281 16.066406 4.617188 C 16.058594 4.625 16.058594 4.640625 16.050781 4.648438 C 16.042969 4.664062 16.042969 4.671875 16.035156 4.6875 C 16.027344 4.695312 16.027344 4.710938 16.019531 4.71875 C 16.015625 4.734375 16.015625 4.742188 16.007812 4.753906 C 16.007812 4.761719 16 4.769531 16 4.777344 C 15.992188 4.792969 15.984375 4.808594 15.976562 4.824219 C 15.976562 4.832031 15.972656 4.832031 15.972656 4.839844 C 15.921875 4.9375 15.871094 5.027344 15.8125 5.121094 C 15.796875 5.136719 15.789062 5.160156 15.777344 5.171875 C 15.761719 5.1875 15.753906 5.203125 15.738281 5.226562 C 15.726562 5.242188 15.710938 5.257812 15.695312 5.28125 C 15.421875 5.613281 15.074219 5.84375 14.742188 5.855469 C 14.417969 5.847656 14.078125 5.621094 13.8125 5.300781 C 13.773438 5.257812 13.738281 5.210938 13.710938 5.164062 C 13.679688 5.121094 13.644531 5.074219 13.617188 5.023438 C 13.617188 5.023438 13.617188 5.023438 13.617188 5.015625 C 13.609375 5 13.59375 4.984375 13.585938 4.96875 C 13.585938 4.960938 13.578125 4.960938 13.578125 4.953125 C 13.574219 4.9375 13.566406 4.921875 13.558594 4.90625 C 13.550781 4.898438 13.550781 4.890625 13.542969 4.886719 C 13.535156 4.871094 13.53125 4.855469 13.523438 4.847656 C 13.515625 4.839844 13.515625 4.832031 13.507812 4.824219 C 13.5 4.808594 13.492188 4.800781 13.492188 4.785156 C 13.484375 4.777344 13.484375 4.761719 13.480469 4.753906 C 13.472656 4.742188 13.472656 4.734375 13.464844 4.71875 C 13.457031 4.710938 13.457031 4.695312 13.449219 4.6875 C 13.441406 4.671875 13.441406 4.664062 13.4375 4.648438 C 13.429688 4.640625 13.429688 4.625 13.421875 4.613281 C 13.414062 4.605469 13.414062 4.589844 13.40625 4.582031 C 13.398438 4.566406 13.398438 4.558594 13.390625 4.542969 C 13.390625 4.535156 13.386719 4.519531 13.386719 4.511719 C 13.378906 4.496094 13.378906 4.480469 13.378906 4.476562 C 13.378906 4.46875 13.371094 4.453125 13.371094 4.445312 C 13.363281 4.429688 13.363281 4.414062 13.363281 4.398438 C 13.363281 4.390625 13.355469 4.382812 13.355469 4.375 C 13.347656 4.351562 13.347656 4.332031 13.339844 4.308594 C 13.339844 4.324219 13.347656 4.34375 13.347656 4.359375 C 13.386719 4.679688 13.472656 5.203125 13.652344 5.667969 C 13.730469 5.863281 13.824219 6.054688 13.941406 6.207031 C 14.136719 6.464844 14.390625 6.640625 14.722656 6.640625 C 14.726562 6.640625 14.726562 6.640625 14.734375 6.640625 C 14.742188 6.640625 14.742188 6.640625 14.75 6.640625 C 15.269531 6.648438 15.601562 6.214844 15.8125 5.707031 C 15.992188 5.265625 16.085938 4.753906 16.128906 4.421875 C 16.136719 4.382812 16.136719 4.351562 16.144531 4.324219 C 16.152344 4.339844 16.144531 4.359375 16.136719 4.382812 Z M 16.136719 4.382812 "/>
<path style=" stroke:none;fill-rule:nonzero;fill:rgb(99.609375%,80.389404%,56.858826%);fill-opacity:1;" d="M 13.347656 4.300781 C 13.347656 4.324219 13.355469 4.339844 13.355469 4.359375 C 13.355469 4.34375 13.355469 4.324219 13.347656 4.300781 C 13.355469 4.300781 13.347656 4.300781 13.347656 4.300781 Z M 13.347656 4.300781 "/>
<path style=" stroke:none;fill-rule:nonzero;fill:rgb(0.389099%,0.389099%,0.389099%);fill-opacity:1;" d="M 16.152344 4.316406 C 16.152344 4.316406 16.152344 4.308594 16.152344 4.308594 C 16.164062 4.222656 16.171875 4.132812 16.171875 4.050781 C 16.171875 4.050781 16.171875 4.078125 16.164062 4.125 C 16.164062 4.171875 16.164062 4.238281 16.152344 4.316406 Z M 16.152344 4.316406 "/>
<path style=" stroke:none;fill-rule:nonzero;fill:rgb(0.779724%,40.388489%,60.389709%);fill-opacity:1;" d="M 18.074219 10.171875 C 18.074219 10.171875 18.152344 8.050781 18.074219 7.351562 C 18.027344 6.972656 17.835938 6.34375 17.125 6.191406 L 17.125 10.101562 L 15.632812 10.066406 L 15.636719 10.253906 L 15.636719 10.261719 L 15.695312 11.347656 L 15.703125 11.460938 C 15.703125 11.46875 15.703125 11.46875 15.703125 11.476562 C 15.703125 11.507812 15.71875 11.539062 15.726562 11.570312 C 15.769531 11.683594 15.875 11.765625 15.992188 11.757812 C 16.367188 11.730469 16.742188 11.675781 17.113281 11.597656 C 18.1875 11.347656 18.101562 10.382812 18.074219 10.171875 Z M 18.074219 10.171875 "/>
<path style=" stroke:none;fill-rule:nonzero;fill:rgb(0.779724%,40.388489%,60.389709%);fill-opacity:1;" d="M 13.773438 11.476562 L 13.78125 11.355469 L 13.839844 10.253906 L 13.839844 10.238281 L 13.847656 10.082031 L 12.351562 10.117188 L 12.351562 6.191406 C 11.644531 6.34375 11.449219 6.980469 11.398438 7.359375 C 11.320312 8.058594 11.398438 10.179688 11.398438 10.179688 C 11.363281 10.390625 11.277344 11.355469 12.359375 11.605469 C 12.726562 11.683594 13.101562 11.734375 13.480469 11.765625 C 13.601562 11.773438 13.710938 11.691406 13.746094 11.570312 C 13.753906 11.546875 13.761719 11.515625 13.761719 11.492188 C 13.769531 11.484375 13.773438 11.476562 13.773438 11.476562 Z M 13.773438 11.476562 "/>
<path style=" stroke:none;fill-rule:nonzero;fill:rgb(99.21875%,80.389404%,63.919067%);fill-opacity:1;" d="M 15.695312 11.476562 C 15.695312 11.507812 15.710938 11.539062 15.71875 11.570312 C 15.421875 11.597656 14.953125 11.585938 14.742188 11.234375 C 14.535156 11.59375 14.050781 11.597656 13.746094 11.570312 C 13.753906 11.546875 13.761719 11.515625 13.761719 11.492188 C 13.761719 11.484375 13.761719 11.484375 13.761719 11.476562 L 13.769531 11.355469 L 13.824219 10.253906 L 13.824219 10.238281 C 13.925781 10.230469 14.503906 10.195312 14.734375 10.503906 C 14.964844 10.21875 15.523438 10.253906 15.625 10.261719 L 15.625 10.269531 L 15.683594 11.355469 L 15.6875 11.46875 C 15.695312 11.46875 15.695312 11.46875 15.695312 11.476562 Z M 16.734375 22.226562 C 16.734375 22.097656 16.613281 22.027344 16.613281 22.027344 L 16.570312 21.9375 L 16.304688 21.480469 C 16.28125 21.351562 16.257812 21.269531 16.246094 21.222656 L 16.289062 20.804688 L 15.363281 20.804688 L 15.371094 20.84375 L 15.398438 21.320312 L 15.175781 22.011719 L 15.074219 22.40625 L 15.046875 22.5 C 15.003906 22.765625 15.082031 22.8125 15.285156 22.832031 C 15.488281 22.855469 15.582031 22.660156 15.582031 22.660156 C 15.574219 22.757812 15.59375 22.839844 15.730469 22.855469 C 15.871094 22.871094 15.921875 22.726562 15.921875 22.726562 C 15.964844 22.832031 16.085938 22.804688 16.085938 22.804688 C 16.179688 22.804688 16.214844 22.71875 16.214844 22.71875 C 16.257812 22.75 16.257812 22.765625 16.375 22.765625 C 16.484375 22.765625 16.484375 22.636719 16.484375 22.628906 C 16.484375 22.636719 16.492188 22.679688 16.613281 22.652344 C 16.757812 22.597656 16.742188 22.355469 16.734375 22.226562 Z M 14.25 22.492188 C 14.296875 22.757812 14.214844 22.804688 14.011719 22.824219 C 13.8125 22.847656 13.71875 22.652344 13.71875 22.652344 C 13.722656 22.75 13.703125 22.832031 13.566406 22.847656 C 13.429688 22.863281 13.378906 22.71875 13.378906 22.71875 C 13.335938 22.824219 13.210938 22.796875 13.210938 22.796875 C 13.117188 22.796875 13.082031 22.710938 13.082031 22.710938 C 13.039062 22.742188 13.039062 22.757812 12.921875 22.757812 C 12.8125 22.757812 12.8125 22.628906 12.8125 22.621094 C 12.8125 22.628906 12.808594 22.675781 12.683594 22.644531 C 12.546875 22.613281 12.570312 22.363281 12.570312 22.234375 C 12.570312 22.105469 12.691406 22.035156 12.691406 22.035156 L 12.734375 21.945312 L 13.003906 21.488281 C 13.023438 21.359375 13.046875 21.277344 13.058594 21.230469 L 13.015625 20.8125 L 13.941406 20.8125 L 13.933594 20.851562 L 13.90625 21.328125 L 14.128906 22.019531 L 14.230469 22.414062 Z M 13.335938 4.058594 C 13.335938 4.078125 13.335938 4.09375 13.339844 4.117188 C 13.339844 4.164062 13.347656 4.222656 13.355469 4.308594 C 13.363281 4.332031 13.363281 4.351562 13.371094 4.375 C 13.371094 4.382812 13.371094 4.390625 13.378906 4.398438 C 13.378906 4.414062 13.386719 4.429688 13.386719 4.445312 C 13.386719 4.453125 13.390625 4.46875 13.390625 4.476562 C 13.390625 4.488281 13.398438 4.503906 13.398438 4.511719 C 13.398438 4.519531 13.40625 4.535156 13.40625 4.542969 C 13.414062 4.558594 13.414062 4.566406 13.421875 4.582031 C 13.429688 4.589844 13.429688 4.605469 13.4375 4.613281 C 13.441406 4.625 13.441406 4.632812 13.449219 4.648438 C 13.457031 4.664062 13.457031 4.671875 13.464844 4.6875 C 13.472656 4.695312 13.472656 4.710938 13.480469 4.71875 C 13.484375 4.734375 13.484375 4.742188 13.492188 4.753906 C 13.5 4.761719 13.5 4.777344 13.507812 4.785156 C 13.515625 4.800781 13.523438 4.808594 13.523438 4.824219 C 13.53125 4.832031 13.53125 4.839844 13.535156 4.847656 C 13.542969 4.863281 13.550781 4.878906 13.558594 4.886719 C 13.566406 4.890625 13.566406 4.898438 13.574219 4.90625 C 13.578125 4.921875 13.585938 4.9375 13.59375 4.953125 C 13.59375 4.960938 13.601562 4.960938 13.601562 4.96875 C 13.609375 4.984375 13.617188 5 13.628906 5.015625 C 13.628906 5.015625 13.628906 5.015625 13.628906 5.023438 C 13.660156 5.066406 13.6875 5.121094 13.722656 5.164062 C 13.753906 5.210938 13.789062 5.257812 13.824219 5.300781 C 14.09375 5.628906 14.433594 5.847656 14.757812 5.855469 C 15.089844 5.847656 15.445312 5.613281 15.710938 5.28125 C 15.726562 5.265625 15.738281 5.25 15.753906 5.226562 C 15.769531 5.210938 15.78125 5.195312 15.789062 5.171875 C 15.804688 5.160156 15.8125 5.136719 15.828125 5.121094 C 15.882812 5.027344 15.941406 4.9375 15.984375 4.839844 C 15.984375 4.832031 15.992188 4.832031 15.992188 4.824219 C 16 4.808594 16.007812 4.792969 16.015625 4.777344 C 16.015625 4.769531 16.019531 4.761719 16.019531 4.753906 C 16.027344 4.742188 16.027344 4.734375 16.035156 4.71875 C 16.042969 4.710938 16.042969 4.695312 16.050781 4.6875 C 16.058594 4.671875 16.058594 4.664062 16.066406 4.648438 C 16.070312 4.640625 16.070312 4.625 16.078125 4.617188 C 16.085938 4.613281 16.085938 4.597656 16.09375 4.589844 C 16.101562 4.574219 16.101562 4.566406 16.109375 4.550781 C 16.109375 4.542969 16.113281 4.527344 16.113281 4.519531 C 16.121094 4.503906 16.121094 4.496094 16.128906 4.480469 C 16.128906 4.476562 16.136719 4.460938 16.136719 4.453125 C 16.144531 4.4375 16.144531 4.421875 16.144531 4.40625 C 16.144531 4.398438 16.152344 4.390625 16.152344 4.382812 C 16.160156 4.359375 16.160156 4.339844 16.164062 4.316406 C 16.171875 4.238281 16.179688 4.171875 16.1875 4.125 C 16.1875 4.101562 16.195312 4.070312 16.195312 4.050781 C 16.289062 4.011719 16.359375 3.8125 16.359375 3.578125 C 16.359375 3.351562 16.296875 3.160156 16.210938 3.109375 C 16.210938 3.109375 16.1875 3.09375 16.1875 3.09375 L 16.160156 3.09375 L 16.179688 3.09375 C 16.179688 3.09375 16.1875 3.304688 16.1875 3.375 C 16.1875 3.457031 16.171875 3.914062 16.171875 3.914062 C 16.171875 3.914062 16.164062 3.214844 15.660156 3.085938 L 13.855469 3.085938 C 13.347656 3.214844 13.347656 3.964844 13.347656 3.964844 C 13.347656 3.964844 13.335938 3.449219 13.335938 3.367188 C 13.335938 3.296875 13.335938 3.109375 13.339844 3.085938 C 13.242188 3.101562 13.152344 3.3125 13.152344 3.5625 C 13.148438 3.828125 13.226562 4.035156 13.335938 4.058594 Z M 14.238281 5.082031 C 14.25 5.066406 14.273438 5.058594 14.289062 5.074219 C 14.300781 5.089844 14.699219 5.453125 15.191406 5.074219 C 15.207031 5.058594 15.234375 5.066406 15.242188 5.089844 C 15.253906 5.113281 15.25 5.136719 15.234375 5.152344 C 15.054688 5.289062 14.878906 5.339844 14.734375 5.339844 C 14.441406 5.339844 14.246094 5.152344 14.238281 5.152344 C 14.230469 5.128906 14.230469 5.105469 14.238281 5.082031 Z M 13.660156 6.054688 C 13.675781 6.109375 13.914062 6.929688 14.734375 6.964844 C 15.589844 6.929688 15.8125 6.046875 15.8125 6.046875 L 15.820312 5.699219 C 15.609375 6.207031 15.277344 6.640625 14.757812 6.632812 C 14.75 6.632812 14.75 6.632812 14.742188 6.632812 C 14.734375 6.632812 14.734375 6.632812 14.726562 6.632812 C 14.394531 6.640625 14.144531 6.464844 13.949219 6.199219 C 13.832031 6.039062 13.738281 5.855469 13.660156 5.660156 Z M 13.660156 6.054688 "/>
<path style=" stroke:none;fill-rule:nonzero;fill:rgb(0.389099%,0.389099%,0.389099%);fill-opacity:1;" d="M 13.328125 3.375 C 13.328125 3.457031 13.339844 3.972656 13.339844 3.972656 C 13.339844 3.972656 13.347656 3.222656 13.847656 3.09375 C 13.847656 3.09375 13.855469 3.09375 13.855469 3.09375 L 13.328125 3.09375 C 13.335938 3.113281 13.328125 3.3125 13.328125 3.375 Z M 13.328125 3.375 "/>
<path style=" stroke:none;fill-rule:nonzero;fill:rgb(0.389099%,0.389099%,0.389099%);fill-opacity:1;" d="M 16.160156 3.921875 C 16.160156 3.921875 16.171875 3.464844 16.171875 3.382812 C 16.171875 3.3125 16.164062 3.101562 16.164062 3.101562 L 15.636719 3.101562 C 15.636719 3.101562 15.644531 3.101562 15.644531 3.101562 C 16.152344 3.222656 16.160156 3.921875 16.160156 3.921875 Z M 16.160156 3.921875 "/>
</g>
</svg>
