<?xml version="1.0" encoding="UTF-8"?>
<svg xmlns="http://www.w3.org/2000/svg" xmlns:xlink="http://www.w3.org/1999/xlink" width="30pt" height="30.000001pt" viewBox="0 0 30 30.000001" version="1.2">
<defs>
<clipPath id="clip1">
  <path d="M 8.886719 11.15625 L 21.75 11.15625 L 21.75 26.082031 L 8.886719 26.082031 Z M 8.886719 11.15625 "/>
</clipPath>
<clipPath id="clip2">
  <path d="M 11 2.398438 L 20 2.398438 L 20 6 L 11 6 Z M 11 2.398438 "/>
</clipPath>
<clipPath id="clip3">
  <path d="M 4.1875 12 L 11 12 L 11 22 L 4.1875 22 Z M 4.1875 12 "/>
</clipPath>
<clipPath id="clip4">
  <path d="M 4.1875 12 L 10 12 L 10 15 L 4.1875 15 Z M 4.1875 12 "/>
</clipPath>
<clipPath id="clip5">
  <path d="M 15 12 L 21.75 12 L 21.75 26.082031 L 15 26.082031 Z M 15 12 "/>
</clipPath>
<clipPath id="clip6">
  <path d="M 15 2.398438 L 20 2.398438 L 20 6 L 15 6 Z M 15 2.398438 "/>
</clipPath>
<clipPath id="clip7">
  <path d="M 20 12.617188 L 25.960938 12.617188 L 25.960938 22 L 20 22 Z M 20 12.617188 "/>
</clipPath>
<clipPath id="clip8">
  <path d="M 20 12 L 25.960938 12 L 25.960938 15 L 20 15 Z M 20 12 "/>
</clipPath>
<clipPath id="clip9">
  <path d="M 21 7 L 25.960938 7 L 25.960938 13 L 21 13 Z M 21 7 "/>
</clipPath>
</defs>
<g id="surface1">
<g clip-path="url(#clip1)" clip-rule="nonzero">
<path style=" stroke:none;fill-rule:nonzero;fill:rgb(83.918762%,83.918762%,94.898987%);fill-opacity:1;" d="M 18.214844 13.21875 L 17.382812 11.230469 L 12.964844 11.230469 L 12.132812 13.21875 L 8.9375 14.667969 L 8.9375 25.066406 C 8.9375 25.632812 9.410156 26.09375 10 26.09375 L 20.347656 26.09375 C 20.933594 26.09375 21.410156 25.632812 21.410156 25.066406 L 21.410156 14.667969 L 18.214844 13.21875 "/>
</g>
<path style=" stroke:none;fill-rule:nonzero;fill:rgb(74.899292%,74.899292%,93.728638%);fill-opacity:1;" d="M 16.121094 21.800781 L 15.171875 22.742188 L 14.226562 21.800781 L 14.226562 12.027344 L 16.121094 12.027344 L 16.121094 21.800781 "/>
<path style=" stroke:none;fill-rule:nonzero;fill:rgb(74.899292%,74.899292%,93.728638%);fill-opacity:1;" d="M 12.714844 14.769531 C 12.503906 14.769531 12.335938 14.929688 12.335938 15.132812 L 12.335938 15.589844 C 12.335938 15.792969 12.503906 15.953125 12.714844 15.953125 C 12.921875 15.953125 13.09375 15.792969 13.09375 15.589844 L 13.09375 15.132812 C 13.09375 14.929688 12.921875 14.769531 12.714844 14.769531 "/>
<path style=" stroke:none;fill-rule:nonzero;fill:rgb(74.899292%,74.899292%,93.728638%);fill-opacity:1;" d="M 12.714844 17.367188 C 12.503906 17.367188 12.335938 17.527344 12.335938 17.730469 L 12.335938 18.1875 C 12.335938 18.390625 12.503906 18.550781 12.714844 18.550781 C 12.921875 18.550781 13.09375 18.390625 13.09375 18.1875 L 13.09375 17.730469 C 13.09375 17.527344 12.921875 17.367188 12.714844 17.367188 "/>
<path style=" stroke:none;fill-rule:nonzero;fill:rgb(74.899292%,74.899292%,93.728638%);fill-opacity:1;" d="M 12.714844 19.964844 C 12.503906 19.964844 12.335938 20.128906 12.335938 20.328125 L 12.335938 20.785156 C 12.335938 20.988281 12.503906 21.152344 12.714844 21.152344 C 12.921875 21.152344 13.09375 20.988281 13.09375 20.785156 L 13.09375 20.328125 C 13.09375 20.128906 12.921875 19.964844 12.714844 19.964844 "/>
<g clip-path="url(#clip2)" clip-rule="nonzero">
<path style=" stroke:none;fill-rule:nonzero;fill:rgb(100%,42.349243%,42.349243%);fill-opacity:1;" d="M 19.316406 5.335938 L 11.03125 5.335938 C 11.582031 3.632812 13.226562 2.398438 15.171875 2.398438 C 16.378906 2.398438 17.460938 2.871094 18.246094 3.628906 C 18.734375 4.101562 19.105469 4.683594 19.316406 5.335938 "/>
</g>
<path style=" stroke:none;fill-rule:nonzero;fill:rgb(100%,88.238525%,72.938538%);fill-opacity:1;" d="M 19.519531 7.203125 L 19.519531 8.761719 C 19.519531 11.078125 17.574219 12.949219 15.171875 12.949219 C 12.777344 12.949219 10.828125 11.078125 10.828125 8.761719 L 10.828125 7.203125 L 19.519531 7.203125 "/>
<path style=" stroke:none;fill-rule:nonzero;fill:rgb(90.19928%,22.349548%,31.369019%);fill-opacity:1;" d="M 19.519531 6.589844 L 19.519531 7.203125 L 10.828125 7.203125 L 10.828125 6.589844 C 10.828125 6.15625 10.898438 5.734375 11.03125 5.335938 L 19.316406 5.335938 C 19.449219 5.734375 19.519531 6.15625 19.519531 6.589844 "/>
<g clip-path="url(#clip3)" clip-rule="nonzero">
<path style=" stroke:none;fill-rule:nonzero;fill:rgb(74.899292%,74.899292%,93.728638%);fill-opacity:1;" d="M 10.125 18.871094 C 10.207031 20.464844 8.890625 21.800781 7.234375 21.800781 C 5.578125 21.800781 4.261719 20.464844 4.351562 18.871094 L 4.585938 14.4375 L 4.679688 12.6875 L 9.789062 12.6875 L 9.882812 14.4375 L 10.125 18.871094 "/>
</g>
<g clip-path="url(#clip4)" clip-rule="nonzero">
<path style=" stroke:none;fill-rule:nonzero;fill:rgb(83.918762%,83.918762%,94.898987%);fill-opacity:1;" d="M 9.886719 14.4375 L 4.585938 14.4375 L 4.679688 12.6875 L 9.792969 12.6875 L 9.886719 14.4375 "/>
</g>
<path style=" stroke:none;fill-rule:nonzero;fill:rgb(100%,88.238525%,72.938538%);fill-opacity:1;" d="M 8.589844 10.074219 C 8.363281 10.074219 8.160156 10.195312 8.050781 10.386719 L 7.589844 11.222656 L 6.78125 8.257812 C 6.691406 7.9375 6.386719 7.710938 6.039062 7.710938 C 5.617188 7.710938 5.273438 8.039062 5.273438 8.449219 L 5.273438 12.6875 L 9.199219 12.6875 L 9.199219 10.664062 C 9.199219 10.339844 8.925781 10.074219 8.589844 10.074219 "/>
<path style=" stroke:none;fill-rule:nonzero;fill:rgb(100%,74.899292%,67.059326%);fill-opacity:1;" d="M 19.515625 7.199219 L 19.515625 8.761719 C 19.515625 10.144531 18.824219 11.367188 17.757812 12.128906 C 17.277344 12.472656 16.726562 12.726562 16.117188 12.851562 C 15.816406 12.917969 15.5 12.949219 15.171875 12.949219 L 15.171875 7.199219 L 19.515625 7.199219 "/>
<path style=" stroke:none;fill-rule:nonzero;fill:rgb(70.979309%,70.979309%,88.62915%);fill-opacity:1;" d="M 16.117188 12.851562 L 16.117188 21.800781 L 15.171875 22.742188 L 15.171875 12.949219 C 15.5 12.949219 15.816406 12.917969 16.117188 12.851562 "/>
<g clip-path="url(#clip5)" clip-rule="nonzero">
<path style=" stroke:none;fill-rule:nonzero;fill:rgb(79.60968%,79.60968%,89.7995%);fill-opacity:1;" d="M 21.414062 14.667969 L 21.414062 25.066406 C 21.414062 25.632812 20.933594 26.089844 20.347656 26.089844 L 15.171875 26.089844 L 15.171875 22.742188 L 16.117188 21.800781 L 16.117188 12.851562 C 16.726562 12.726562 17.277344 12.472656 17.757812 12.128906 L 18.210938 13.222656 L 21.414062 14.667969 "/>
</g>
<path style=" stroke:none;fill-rule:nonzero;fill:rgb(85.099792%,17.248535%,28.62854%);fill-opacity:1;" d="M 19.515625 6.589844 L 19.515625 7.199219 L 15.171875 7.199219 L 15.171875 5.335938 L 19.316406 5.335938 C 19.449219 5.734375 19.515625 6.152344 19.515625 6.589844 "/>
<g clip-path="url(#clip6)" clip-rule="nonzero">
<path style=" stroke:none;fill-rule:nonzero;fill:rgb(90.19928%,22.349548%,31.369019%);fill-opacity:1;" d="M 19.316406 5.335938 L 15.171875 5.335938 L 15.171875 2.402344 C 16.378906 2.402344 17.460938 2.867188 18.246094 3.628906 C 18.738281 4.101562 19.105469 4.6875 19.316406 5.335938 "/>
</g>
<g clip-path="url(#clip7)" clip-rule="nonzero">
<path style=" stroke:none;fill-rule:nonzero;fill:rgb(70.588684%,70.588684%,82.749939%);fill-opacity:1;" d="M 20.222656 18.871094 C 20.140625 20.464844 21.457031 21.800781 23.113281 21.800781 C 24.769531 21.800781 26.085938 20.464844 25.996094 18.871094 L 25.761719 14.4375 L 25.667969 12.6875 L 20.558594 12.6875 L 20.464844 14.4375 L 20.222656 18.871094 "/>
</g>
<g clip-path="url(#clip8)" clip-rule="nonzero">
<path style=" stroke:none;fill-rule:nonzero;fill:rgb(79.60968%,79.60968%,89.7995%);fill-opacity:1;" d="M 20.460938 14.4375 L 25.757812 14.4375 L 25.667969 12.6875 L 20.554688 12.6875 L 20.460938 14.4375 "/>
</g>
<g clip-path="url(#clip9)" clip-rule="nonzero">
<path style=" stroke:none;fill-rule:nonzero;fill:rgb(100%,74.899292%,67.059326%);fill-opacity:1;" d="M 21.757812 10.074219 C 21.984375 10.074219 22.1875 10.195312 22.296875 10.386719 L 22.757812 11.222656 L 23.566406 8.257812 C 23.65625 7.9375 23.960938 7.710938 24.304688 7.710938 C 24.730469 7.710938 25.070312 8.039062 25.070312 8.449219 L 25.070312 12.6875 L 21.148438 12.6875 L 21.148438 10.664062 C 21.148438 10.339844 21.421875 10.074219 21.757812 10.074219 "/>
</g>
</g>
</svg>
