<?xml version="1.0" encoding="UTF-8"?>
<svg xmlns="http://www.w3.org/2000/svg" xmlns:xlink="http://www.w3.org/1999/xlink" width="30pt" height="30.000001pt" viewBox="0 0 30 30.000001" version="1.2">
<defs>
<clipPath id="clip1">
  <path d="M 2.792969 7.789062 L 14.285156 7.789062 L 14.285156 21.578125 L 2.792969 21.578125 Z M 2.792969 7.789062 "/>
</clipPath>
<clipPath id="clip2">
  <path d="M 15.890625 7.789062 L 27.421875 7.789062 L 27.421875 21.578125 L 15.890625 21.578125 Z M 15.890625 7.789062 "/>
</clipPath>
</defs>
<g id="surface1">
<g clip-path="url(#clip1)" clip-rule="nonzero">
<path style=" stroke:none;fill-rule:evenodd;fill:rgb(100%,100%,100%);fill-opacity:1;" d="M 10.996094 9.308594 L 10.234375 13.539062 C 10.214844 13.660156 10.101562 13.742188 9.980469 13.71875 C 9.863281 13.699219 9.78125 13.585938 9.804688 13.460938 L 10.652344 8.734375 C 10.652344 8.730469 10.65625 8.726562 10.65625 8.722656 L 10.601562 8.480469 C 10.523438 8.121094 10.207031 7.878906 9.859375 7.816406 C 9.261719 7.707031 9.054688 7.917969 8.953125 8.480469 L 8.128906 13.0625 C 8.109375 13.183594 7.996094 13.265625 7.875 13.246094 C 7.757812 13.222656 7.675781 13.109375 7.695312 12.988281 L 8.390625 9.136719 C 8.457031 8.765625 8.125 8.394531 7.761719 8.332031 C 7.636719 8.308594 7.503906 8.308594 7.378906 8.335938 C 6.996094 8.417969 6.773438 8.6875 6.707031 9.078125 L 5.796875 14.335938 L 4.460938 12.257812 C 4.265625 11.953125 3.980469 11.78125 3.617188 11.832031 C 3.488281 11.851562 3.363281 11.902344 3.25 11.972656 C 3.136719 12.042969 3.039062 12.140625 2.960938 12.25 C 2.738281 12.578125 2.746094 12.945312 2.941406 13.285156 C 3.300781 13.921875 3.609375 14.582031 3.863281 15.273438 C 4.0625 15.8125 4.222656 16.355469 4.382812 16.90625 C 4.667969 17.90625 4.90625 18.789062 5.613281 19.578125 C 6.265625 20.308594 7.0625 21 7.980469 21.34375 C 8.847656 21.671875 9.703125 21.652344 10.574219 21.332031 C 12.757812 20.523438 12.941406 19.46875 13.207031 17.332031 C 13.265625 16.878906 13.324219 16.425781 13.398438 15.976562 L 14.25 11.066406 C 14.429688 10.015625 12.980469 9.558594 12.828125 10.398438 L 12.066406 14.632812 C 12.046875 14.753906 11.933594 14.835938 11.8125 14.816406 C 11.695312 14.792969 11.613281 14.679688 11.632812 14.558594 L 12.484375 9.835938 C 12.609375 8.8125 11.148438 8.464844 10.996094 9.308594 "/>
</g>
<g clip-path="url(#clip2)" clip-rule="nonzero">
<path style=" stroke:none;fill-rule:evenodd;fill:rgb(100%,100%,100%);fill-opacity:1;" d="M 19.222656 9.308594 L 19.980469 13.539062 C 20.003906 13.660156 20.117188 13.742188 20.234375 13.71875 C 20.355469 13.699219 20.433594 13.585938 20.414062 13.460938 L 19.5625 8.734375 C 19.5625 8.730469 19.5625 8.726562 19.5625 8.722656 L 19.613281 8.480469 C 19.695312 8.121094 20.011719 7.878906 20.355469 7.816406 C 20.957031 7.707031 21.164062 7.917969 21.261719 8.480469 L 22.085938 13.0625 C 22.109375 13.183594 22.222656 13.265625 22.339844 13.246094 C 22.460938 13.222656 22.539062 13.109375 22.519531 12.988281 L 21.828125 9.136719 C 21.761719 8.765625 22.089844 8.394531 22.457031 8.332031 C 22.582031 8.308594 22.714844 8.308594 22.839844 8.335938 C 23.222656 8.417969 23.445312 8.6875 23.511719 9.078125 L 24.421875 14.335938 L 25.757812 12.257812 C 25.953125 11.953125 26.234375 11.78125 26.597656 11.832031 C 26.730469 11.851562 26.855469 11.902344 26.964844 11.972656 C 27.078125 12.042969 27.179688 12.140625 27.253906 12.25 C 27.480469 12.578125 27.46875 12.945312 27.277344 13.285156 C 26.914062 13.921875 26.609375 14.582031 26.351562 15.273438 C 26.152344 15.8125 25.992188 16.355469 25.835938 16.90625 C 25.550781 17.90625 25.308594 18.789062 24.601562 19.578125 C 23.949219 20.308594 23.15625 21 22.234375 21.34375 C 21.367188 21.671875 20.511719 21.652344 19.640625 21.332031 C 17.457031 20.523438 17.277344 19.46875 17.007812 17.332031 C 16.953125 16.878906 16.894531 16.425781 16.816406 15.976562 L 15.96875 11.066406 C 15.785156 10.015625 17.238281 9.558594 17.390625 10.398438 L 18.152344 14.632812 C 18.171875 14.753906 18.285156 14.835938 18.402344 14.816406 C 18.523438 14.792969 18.601562 14.679688 18.582031 14.558594 L 17.734375 9.835938 C 17.609375 8.8125 19.070312 8.464844 19.222656 9.308594 "/>
</g>
</g>
</svg>
