<?xml version="1.0" encoding="UTF-8"?>
<svg xmlns="http://www.w3.org/2000/svg" xmlns:xlink="http://www.w3.org/1999/xlink" width="30pt" height="30.000001pt" viewBox="0 0 30 30.000001" version="1.2">
<defs>
<clipPath id="clip1">
  <path d="M 6.441406 2.460938 L 23.859375 2.460938 L 23.859375 25 L 6.441406 25 Z M 6.441406 2.460938 "/>
</clipPath>
<clipPath id="clip2">
  <path d="M 7 21 L 23.859375 21 L 23.859375 24 L 7 24 Z M 7 21 "/>
</clipPath>
<clipPath id="clip3">
  <path d="M 8 22 L 11 22 L 11 26.265625 L 8 26.265625 Z M 8 22 "/>
</clipPath>
<clipPath id="clip4">
  <path d="M 8 2.460938 L 23.859375 2.460938 L 23.859375 22 L 8 22 Z M 8 2.460938 "/>
</clipPath>
<clipPath id="clip5">
  <path d="M 9 5 L 23.859375 5 L 23.859375 19 L 9 19 Z M 9 5 "/>
</clipPath>
</defs>
<g id="surface1">
<g clip-path="url(#clip1)" clip-rule="nonzero">
<path style=" stroke:none;fill-rule:nonzero;fill:rgb(42.349243%,67.83905%,27.449036%);fill-opacity:1;" d="M 8.761719 21.070312 L 24.164062 21.070312 L 24.164062 3.679688 C 24.164062 3.003906 23.59375 2.460938 22.886719 2.460938 L 7.730469 2.460938 C 7.019531 2.460938 6.449219 3.003906 6.449219 3.679688 L 6.449219 22.316406 C 6.449219 23.273438 7.25 24.035156 8.253906 24.035156 L 24.164062 24.035156 L 24.164062 23.390625 L 8.761719 23.390625 C 8.097656 23.390625 7.574219 22.875 7.574219 22.230469 C 7.574219 21.582031 8.097656 21.070312 8.761719 21.070312 Z M 8.761719 21.070312 "/>
</g>
<g clip-path="url(#clip2)" clip-rule="nonzero">
<path style=" stroke:none;fill-rule:nonzero;fill:rgb(81.959534%,82.749939%,83.139038%);fill-opacity:1;" d="M 23.238281 21.539062 L 24.011719 21.070312 L 8.730469 21.070312 C 8.082031 21.070312 7.574219 21.582031 7.574219 22.230469 C 7.574219 22.859375 8.097656 23.390625 8.730469 23.390625 L 24.011719 23.390625 L 23.238281 22.917969 C 22.730469 22.597656 22.730469 21.847656 23.238281 21.539062 Z M 23.238281 21.539062 "/>
</g>
<g clip-path="url(#clip3)" clip-rule="nonzero">
<path style=" stroke:none;fill-rule:nonzero;fill:rgb(30.979919%,72.549438%,87.449646%);fill-opacity:1;" d="M 8.867188 22.214844 L 8.867188 26.207031 C 8.867188 26.253906 8.914062 26.265625 8.945312 26.222656 L 9.808594 25.019531 L 10.671875 26.222656 C 10.6875 26.253906 10.746094 26.238281 10.746094 26.207031 L 10.746094 22.214844 Z M 8.867188 22.214844 "/>
</g>
<g clip-path="url(#clip4)" clip-rule="nonzero">
<path style=" stroke:none;fill-rule:nonzero;fill:rgb(45.489502%,81.959534%,30.979919%);fill-opacity:1;" d="M 22.886719 2.460938 L 8.761719 2.460938 L 8.761719 21.070312 L 24.164062 21.070312 L 24.164062 3.679688 C 24.164062 3.003906 23.59375 2.460938 22.886719 2.460938 Z M 22.886719 2.460938 "/>
</g>
<g clip-path="url(#clip5)" clip-rule="nonzero">
<path style=" stroke:none;fill-rule:nonzero;fill:rgb(100%,94.509888%,4.309082%);fill-opacity:1;" d="M 16.308594 18.085938 C 15.90625 17.941406 15.691406 17.382812 15.847656 16.867188 C 15.921875 16.574219 15.863281 16.53125 15.601562 16.707031 C 15.523438 16.765625 15.167969 16.898438 14.8125 17.015625 C 13.953125 17.292969 13.136719 17.308594 12.65625 17.046875 C 12.042969 16.707031 11.8125 16.132812 11.980469 15.296875 C 12.027344 15.046875 12.089844 14.796875 12.117188 14.726562 C 12.148438 14.652344 12.011719 14.738281 11.824219 14.902344 C 11.457031 15.222656 11.210938 15.3125 10.917969 15.253906 C 10.378906 15.121094 10.253906 14.152344 10.65625 13.269531 C 10.792969 12.976562 10.792969 12.960938 10.65625 12.800781 C 10.238281 12.316406 10.300781 11.671875 10.855469 10.757812 C 11.226562 10.144531 11.242188 10.113281 11.300781 10.171875 C 11.332031 10.203125 11.257812 10.332031 11.164062 10.496094 C 10.933594 10.832031 10.625 11.523438 10.5625 11.847656 C 10.484375 12.214844 10.640625 12.492188 10.917969 12.492188 C 11.039062 12.492188 11.242188 12.449219 11.363281 12.375 C 11.578125 12.273438 12.351562 11.640625 13.152344 10.921875 L 13.566406 10.554688 L 13.304688 10.347656 C 13.167969 10.230469 12.703125 9.921875 12.304688 9.660156 C 11.488281 9.128906 11.363281 8.96875 11.488281 8.527344 C 11.550781 8.277344 11.609375 8.234375 12.289062 7.910156 L 13.011719 7.558594 L 12.859375 7.398438 C 12.734375 7.277344 12.71875 7.191406 12.75 7.03125 C 12.78125 6.910156 12.84375 6.78125 12.890625 6.75 C 13.183594 6.53125 16.109375 5.53125 16.199219 5.632812 C 16.277344 5.707031 16.109375 5.796875 15.292969 6.058594 C 14.382812 6.355469 13.011719 6.867188 12.917969 6.957031 C 12.890625 6.984375 12.917969 7.117188 12.996094 7.25 C 13.074219 7.382812 13.136719 7.5 13.136719 7.515625 C 13.136719 7.527344 13.597656 7.398438 14.136719 7.21875 C 15.429688 6.808594 17.109375 6.398438 17.527344 6.398438 C 17.789062 6.398438 17.910156 6.441406 18.050781 6.574219 C 18.21875 6.734375 18.234375 6.792969 18.1875 7.015625 C 18.125 7.324219 17.878906 7.660156 17.449219 8.011719 C 17.277344 8.144531 16.910156 8.484375 16.632812 8.761719 L 16.125 9.261719 L 16.308594 8.910156 C 16.539062 8.484375 16.832031 8.160156 17.464844 7.703125 C 17.726562 7.515625 17.925781 7.324219 17.925781 7.265625 C 17.925781 7.058594 17.632812 6.882812 17.277344 6.882812 C 16.539062 6.882812 14.367188 7.5 12.75 8.160156 C 11.5625 8.644531 11.550781 8.675781 12.042969 8.910156 C 12.519531 9.144531 13.96875 9.980469 14.136719 10.128906 C 14.261719 10.230469 14.304688 10.214844 14.644531 10.085938 C 14.859375 9.996094 15.078125 9.9375 15.136719 9.9375 C 15.214844 9.9375 15.230469 9.894531 15.199219 9.746094 C 15.167969 9.644531 15.105469 9.277344 15.046875 8.9375 C 14.984375 8.601562 14.921875 8.25 14.890625 8.160156 C 14.859375 8.058594 14.875 7.867188 14.90625 7.734375 L 14.96875 7.484375 L 15.246094 7.910156 C 15.539062 8.367188 15.617188 8.601562 15.414062 8.4375 C 15.230469 8.292969 15.199219 8.410156 15.292969 8.863281 C 15.414062 9.480469 15.523438 9.660156 15.921875 9.863281 C 16.308594 10.054688 16.386719 10.171875 16.308594 10.453125 C 16.261719 10.613281 16.246094 10.628906 16.046875 10.523438 C 15.785156 10.40625 15.089844 10.378906 14.890625 10.480469 C 14.769531 10.539062 14.800781 10.582031 15.121094 10.789062 C 15.324219 10.921875 15.894531 11.304688 16.386719 11.640625 C 17.261719 12.242188 17.292969 12.257812 17.308594 12.066406 C 17.324219 11.964844 17.292969 11.183594 17.25 10.320312 C 17.1875 9.011719 17.1875 8.734375 17.261719 8.570312 L 17.371094 8.378906 L 17.496094 8.660156 C 17.925781 9.644531 17.988281 9.953125 17.679688 9.613281 L 17.527344 9.4375 L 17.570312 10.539062 C 17.601562 11.140625 17.632812 11.847656 17.664062 12.097656 C 17.710938 12.523438 17.726562 12.550781 18.003906 12.683594 C 18.34375 12.84375 18.589844 12.859375 18.925781 12.710938 C 19.171875 12.609375 19.1875 12.59375 19.1875 12.214844 C 19.1875 11.992188 19.144531 11.363281 19.082031 10.804688 C 19.019531 10.246094 18.941406 9.277344 18.894531 8.660156 C 18.851562 8.027344 18.789062 7.234375 18.742188 6.898438 C 18.695312 6.472656 18.695312 6.207031 18.757812 6.074219 C 18.835938 5.882812 18.851562 5.898438 19.128906 6.457031 C 19.28125 6.765625 19.421875 7.089844 19.421875 7.160156 C 19.421875 7.277344 19.390625 7.277344 19.234375 7.089844 L 19.050781 6.867188 L 19.097656 7.324219 C 19.128906 7.574219 19.21875 8.703125 19.328125 9.835938 C 19.574219 12.433594 19.511719 12.902344 18.894531 13.199219 C 18.664062 13.316406 18.25 13.316406 17.863281 13.199219 C 17.710938 13.152344 17.695312 13.167969 17.726562 13.269531 C 17.742188 13.34375 17.789062 13.753906 17.816406 14.179688 C 17.863281 14.988281 17.789062 15.886719 17.617188 16.28125 C 17.539062 16.472656 17.527344 16.371094 17.527344 15.445312 C 17.527344 14.871094 17.496094 14.050781 17.464844 13.625 L 17.402344 12.859375 L 16.894531 12.492188 C 16.617188 12.285156 16.046875 11.875 15.628906 11.566406 C 15.214844 11.257812 14.875 11.023438 14.875 11.054688 C 14.875 11.082031 14.984375 11.273438 15.121094 11.492188 C 15.308594 11.800781 15.367188 11.980469 15.355469 12.257812 C 15.355469 12.933594 15.03125 13.257812 14.152344 13.460938 C 13.566406 13.609375 12.90625 13.917969 12.582031 14.195312 C 12.164062 14.578125 12.074219 15.578125 12.410156 16.105469 C 12.796875 16.691406 13.9375 16.839844 15.015625 16.457031 C 15.96875 16.121094 16.816406 15.589844 16.816406 15.328125 C 16.816406 15.238281 16.679688 14.8125 16.507812 14.402344 C 16.261719 13.785156 16.214844 13.578125 16.261719 13.375 L 16.308594 13.125 L 16.632812 13.476562 C 16.988281 13.871094 17.03125 13.976562 16.816406 13.902344 C 16.648438 13.84375 16.632812 13.917969 16.753906 14.195312 C 17.140625 15.121094 17.078125 15.605469 16.523438 16.105469 C 16.140625 16.457031 16 16.738281 16 17.25 C 16 17.574219 16.171875 17.777344 16.417969 17.777344 C 16.664062 17.777344 17.140625 17.398438 17.632812 16.824219 C 18.171875 16.207031 18.511719 15.957031 19.3125 15.636719 C 19.636719 15.503906 19.945312 15.371094 19.976562 15.339844 C 20.003906 15.3125 20.050781 15.078125 20.050781 14.796875 C 20.066406 14.253906 20.222656 13.917969 20.5 13.742188 C 20.636719 13.652344 20.714844 13.652344 20.820312 13.710938 C 20.960938 13.785156 21.128906 14.167969 21.128906 14.429688 C 21.128906 14.695312 20.867188 15.253906 20.667969 15.429688 L 20.453125 15.621094 L 20.621094 15.765625 C 20.835938 15.957031 21.007812 15.957031 21.40625 15.765625 C 21.605469 15.679688 21.746094 15.5625 21.777344 15.445312 C 21.808594 15.355469 21.777344 14.695312 21.746094 13.976562 C 21.667969 12.816406 21.390625 8.542969 21.359375 8.085938 C 21.359375 7.984375 21.375 7.808594 21.40625 7.660156 C 21.484375 7.367188 21.5 7.410156 21.824219 8.144531 C 22.070312 8.703125 22.070312 8.851562 21.824219 8.570312 L 21.667969 8.394531 L 21.714844 8.925781 C 21.730469 9.21875 21.792969 9.964844 21.839844 10.597656 C 21.882812 11.230469 21.929688 11.816406 21.945312 11.917969 C 22.039062 12.449219 22.070312 14.902344 21.976562 15.296875 C 21.839844 15.972656 21.375 16.398438 20.835938 16.398438 C 20.636719 16.398438 20.375 16.164062 20.296875 15.914062 C 20.238281 15.695312 20.144531 15.707031 19.421875 16.015625 C 18.605469 16.355469 18.109375 16.707031 17.601562 17.324219 C 16.972656 18.058594 16.679688 18.234375 16.308594 18.085938 Z M 20.636719 15.0625 C 20.835938 14.902344 20.867188 14.84375 20.820312 14.652344 C 20.761719 14.328125 20.574219 14.167969 20.375 14.269531 C 20.144531 14.386719 20.097656 14.476562 20.144531 14.753906 C 20.25 15.339844 20.28125 15.355469 20.636719 15.0625 Z M 11.425781 14.652344 C 11.578125 14.546875 11.933594 14.269531 12.195312 14.019531 C 12.78125 13.492188 13.210938 13.269531 14.167969 13.019531 C 14.84375 12.84375 15.183594 12.652344 15.183594 12.476562 C 15.183594 12.300781 14.628906 11.507812 14.273438 11.183594 L 13.921875 10.847656 L 13.707031 10.980469 C 13.597656 11.054688 13.136719 11.421875 12.703125 11.800781 C 11.71875 12.667969 11.394531 12.917969 11.085938 12.960938 C 10.886719 13.007812 10.824219 13.066406 10.6875 13.445312 C 10.484375 13.945312 10.457031 14.5625 10.609375 14.726562 C 10.777344 14.886719 11.101562 14.855469 11.425781 14.652344 Z M 11.734375 13.785156 C 11.640625 13.695312 11.6875 13.210938 11.796875 12.949219 C 11.855469 12.800781 11.933594 12.699219 11.949219 12.710938 C 11.964844 12.726562 11.933594 12.875 11.855469 13.019531 C 11.796875 13.167969 11.734375 13.316406 11.75 13.328125 C 11.75 13.34375 11.796875 13.417969 11.839844 13.503906 C 11.917969 13.652344 11.917969 13.652344 12.027344 13.519531 C 12.148438 13.359375 12.164062 13.417969 12.042969 13.667969 C 11.964844 13.828125 11.824219 13.886719 11.734375 13.785156 Z M 13.058594 12.550781 C 12.933594 12.464844 12.828125 12.390625 12.8125 12.375 C 12.765625 12.34375 13.042969 11.992188 13.121094 11.992188 C 13.167969 11.992188 13.289062 12.050781 13.398438 12.140625 L 13.613281 12.285156 L 13.765625 12.097656 C 13.90625 11.90625 13.921875 11.90625 14.105469 12.023438 C 14.382812 12.183594 14.414062 12.316406 14.246094 12.523438 L 14.105469 12.699219 L 13.859375 12.523438 L 13.613281 12.34375 L 13.457031 12.523438 L 13.289062 12.710938 Z M 18.019531 17.984375 C 18.21875 17.71875 18.234375 17.515625 18.066406 17.589844 C 17.957031 17.632812 17.957031 17.601562 18.035156 17.484375 C 18.21875 17.164062 18.417969 17.414062 18.265625 17.75 C 18.21875 17.867188 18.109375 18.015625 18.019531 18.085938 C 17.847656 18.207031 17.847656 18.207031 18.019531 17.984375 Z M 19.328125 17.589844 C 19.21875 17.382812 19.113281 17.265625 18.988281 17.25 C 18.773438 17.207031 18.664062 16.824219 18.867188 16.824219 C 18.988281 16.824219 19.433594 17.28125 19.433594 17.398438 C 19.433594 17.441406 19.464844 17.472656 19.511719 17.472656 C 19.558594 17.472656 19.589844 17.398438 19.589844 17.308594 C 19.589844 17.132812 19.851562 16.691406 19.945312 16.691406 C 20.066406 16.691406 20.191406 16.867188 20.191406 17.046875 C 20.191406 17.222656 20.191406 17.222656 20.035156 17.089844 C 19.835938 16.925781 19.773438 16.984375 19.605469 17.5 L 19.464844 17.910156 Z M 11.332031 16.121094 C 11.488281 15.839844 11.488281 15.679688 11.332031 15.679688 C 11.242188 15.679688 11.226562 15.664062 11.300781 15.578125 C 11.410156 15.457031 11.5625 15.429688 11.640625 15.546875 C 11.703125 15.636719 11.441406 16.222656 11.300781 16.296875 C 11.257812 16.324219 11.273438 16.253906 11.332031 16.121094 Z M 13.167969 15.839844 C 13.105469 15.695312 13.105469 15.53125 13.167969 15.253906 C 13.210938 15.046875 13.226562 14.855469 13.210938 14.84375 C 13.195312 14.828125 13.058594 14.871094 12.917969 14.960938 C 12.71875 15.078125 12.65625 15.09375 12.65625 15.003906 C 12.65625 14.945312 12.964844 14.738281 13.351562 14.519531 C 14.183594 14.0625 14.167969 14.0625 14.105469 14.210938 C 14.074219 14.269531 13.921875 14.402344 13.75 14.503906 C 13.519531 14.636719 13.414062 14.753906 13.351562 14.960938 C 13.242188 15.3125 13.242188 15.503906 13.351562 15.695312 C 13.429688 15.839844 13.445312 15.839844 13.535156 15.707031 C 13.660156 15.546875 13.660156 15.589844 13.566406 15.839844 C 13.457031 16.089844 13.273438 16.089844 13.167969 15.839844 Z M 14.492188 15.296875 C 14.289062 15.152344 14.273438 15.105469 14.351562 14.945312 C 14.460938 14.726562 14.566406 14.710938 14.8125 14.902344 C 14.96875 15.019531 14.984375 15.0625 14.921875 15.238281 C 14.828125 15.488281 14.753906 15.503906 14.492188 15.296875 Z M 15.554688 15.253906 C 15.445312 15.078125 15.523438 14.59375 15.675781 14.34375 L 15.785156 14.167969 L 15.738281 14.34375 C 15.617188 14.828125 15.617188 14.988281 15.707031 15.09375 C 15.800781 15.195312 15.816406 15.195312 15.90625 15.078125 C 16.03125 14.929688 16.03125 14.972656 15.9375 15.222656 C 15.847656 15.445312 15.675781 15.457031 15.554688 15.253906 Z M 18.402344 15.03125 C 18.449219 14.960938 18.511719 14.902344 18.558594 14.902344 C 18.605469 14.902344 18.589844 14.84375 18.511719 14.753906 C 18.386719 14.621094 18.386719 14.605469 18.496094 14.429688 C 18.664062 14.195312 18.957031 14.003906 19.113281 14.0625 C 19.296875 14.136719 19.1875 14.285156 18.972656 14.269531 C 18.867188 14.253906 18.742188 14.296875 18.695312 14.359375 C 18.542969 14.535156 18.726562 14.636719 19.1875 14.621094 C 19.527344 14.605469 19.589844 14.621094 19.558594 14.710938 C 19.527344 14.769531 19.449219 14.8125 19.359375 14.8125 C 19.265625 14.8125 19.003906 14.886719 18.773438 14.988281 C 18.355469 15.152344 18.34375 15.152344 18.402344 15.03125 Z M 22.5625 14.359375 C 22.578125 13.902344 22.53125 12.683594 22.46875 11.640625 C 22.316406 9.21875 22.300781 8.878906 22.410156 8.777344 C 22.46875 8.71875 22.5625 8.878906 22.761719 9.320312 C 23.039062 9.953125 23.054688 10.15625 22.808594 9.847656 L 22.671875 9.671875 L 22.671875 9.953125 C 22.671875 10.113281 22.714844 10.878906 22.777344 11.65625 C 22.917969 13.492188 22.917969 14.269531 22.777344 14.738281 C 22.714844 14.945312 22.640625 15.121094 22.609375 15.136719 C 22.5625 15.164062 22.546875 14.796875 22.5625 14.359375 Z M 14.367188 14.285156 C 14.367188 14.253906 14.613281 14.035156 14.921875 13.8125 C 15.230469 13.578125 15.585938 13.285156 15.722656 13.152344 C 15.9375 12.949219 15.953125 12.890625 15.878906 12.773438 C 15.753906 12.582031 15.769531 12.375 15.894531 12.273438 C 16.046875 12.15625 16.15625 12.242188 16.15625 12.476562 C 16.15625 12.59375 16.183594 12.699219 16.230469 12.726562 C 16.371094 12.800781 16.324219 12.992188 16.171875 12.949219 C 16.078125 12.917969 16 12.976562 15.90625 13.125 C 15.738281 13.386719 14.367188 14.429688 14.367188 14.285156 Z M 16.046875 12.476562 C 16.015625 12.433594 15.96875 12.40625 15.921875 12.40625 C 15.878906 12.40625 15.847656 12.433594 15.847656 12.476562 C 15.847656 12.523438 15.894531 12.550781 15.96875 12.550781 C 16.046875 12.550781 16.078125 12.523438 16.046875 12.476562 Z M 19.34375 13.753906 C 19.589844 13.636719 19.542969 13.535156 19.28125 13.566406 C 19.035156 13.59375 18.988281 13.519531 19.1875 13.417969 C 19.328125 13.34375 19.867188 13.386719 19.867188 13.476562 C 19.867188 13.578125 19.605469 13.742188 19.390625 13.785156 C 19.203125 13.828125 19.203125 13.828125 19.34375 13.753906 Z M 9.917969 13.242188 C 10.148438 12.875 10.148438 12.84375 9.992188 12.84375 C 9.855469 12.84375 9.855469 12.742188 9.992188 12.640625 C 10.132812 12.535156 10.253906 12.59375 10.253906 12.773438 C 10.253906 12.902344 9.839844 13.566406 9.761719 13.566406 C 9.746094 13.550781 9.808594 13.402344 9.917969 13.242188 Z M 20.050781 13.167969 L 19.882812 13.007812 L 20.035156 12.816406 L 20.191406 12.625 L 20.375 12.785156 L 20.558594 12.949219 L 20.746094 12.773438 C 20.945312 12.59375 21.097656 12.625 21.253906 12.875 C 21.316406 12.960938 21.300781 13.019531 21.175781 13.140625 L 21.023438 13.285156 L 20.804688 13.140625 L 20.589844 12.992188 L 20.222656 13.34375 Z M 20.28125 11.800781 C 20.265625 11.421875 20.25 11.097656 20.222656 11.066406 C 20.191406 11.039062 20.050781 11.097656 19.882812 11.183594 C 19.480469 11.40625 19.511719 11.289062 19.929688 11.039062 C 20.191406 10.878906 20.25 10.804688 20.238281 10.6875 C 20.222656 10.597656 20.191406 10.1875 20.160156 9.746094 C 20.128906 9.320312 20.082031 8.5 20.035156 7.941406 C 19.976562 6.984375 19.988281 6.574219 20.097656 6.574219 C 20.144531 6.574219 20.5 7.324219 20.589844 7.644531 C 20.652344 7.824219 20.652344 7.824219 20.484375 7.691406 C 20.390625 7.617188 20.3125 7.574219 20.296875 7.585938 C 20.28125 7.601562 20.296875 7.941406 20.328125 8.320312 C 20.359375 8.703125 20.40625 9.335938 20.4375 9.703125 C 20.5 10.582031 20.515625 10.613281 20.699219 10.453125 C 20.835938 10.332031 20.835938 10.304688 20.730469 10.203125 C 20.667969 10.144531 20.621094 10.039062 20.621094 9.980469 C 20.621094 9.835938 20.882812 9.613281 20.992188 9.671875 C 21.082031 9.730469 21.082031 10.421875 20.992188 10.421875 C 20.960938 10.421875 20.835938 10.511719 20.746094 10.613281 C 20.589844 10.773438 20.558594 10.878906 20.558594 11.289062 C 20.558594 11.757812 20.421875 12.492188 20.34375 12.492188 C 20.3125 12.476562 20.296875 12.167969 20.28125 11.800781 Z M 20.960938 9.953125 C 20.914062 9.835938 20.789062 9.804688 20.789062 9.90625 C 20.789062 9.980469 20.867188 10.054688 20.945312 10.054688 C 20.976562 10.070312 20.992188 10.011719 20.960938 9.953125 Z M 23.132812 12.332031 C 22.992188 12.109375 23.210938 11.054688 23.410156 11.054688 C 23.441406 11.054688 23.410156 11.183594 23.332031 11.363281 C 23.179688 11.699219 23.148438 11.890625 23.253906 12.050781 C 23.316406 12.140625 23.332031 12.140625 23.410156 12.050781 C 23.503906 11.917969 23.503906 11.992188 23.410156 12.226562 C 23.316406 12.417969 23.210938 12.464844 23.132812 12.332031 Z M 18.25 11.875 C 18.203125 11.773438 18.171875 11.671875 18.171875 11.625 C 18.171875 11.507812 18.480469 10.757812 18.527344 10.804688 C 18.542969 10.820312 18.496094 10.996094 18.433594 11.183594 C 18.296875 11.566406 18.328125 11.816406 18.511719 11.742188 C 18.648438 11.699219 18.664062 11.847656 18.527344 11.964844 C 18.402344 12.097656 18.328125 12.082031 18.25 11.875 Z M 16.539062 11.347656 C 16.445312 11.183594 16.617188 10.597656 16.816406 10.421875 C 16.925781 10.332031 16.925781 10.332031 16.832031 10.480469 C 16.664062 10.804688 16.601562 11.082031 16.695312 11.183594 C 16.753906 11.257812 16.785156 11.257812 16.847656 11.183594 C 16.894531 11.113281 16.910156 11.113281 16.910156 11.199219 C 16.910156 11.316406 16.769531 11.480469 16.679688 11.480469 C 16.632812 11.492188 16.570312 11.421875 16.539062 11.347656 Z M 11.871094 11.246094 C 11.765625 11.082031 11.765625 11.039062 11.871094 10.6875 C 11.933594 10.480469 12.027344 10.261719 12.058594 10.203125 C 12.148438 10.054688 12.148438 10.097656 12.027344 10.496094 C 11.871094 10.949219 11.964844 11.257812 12.195312 11.039062 C 12.257812 10.980469 12.273438 10.996094 12.242188 11.113281 C 12.148438 11.390625 12.011719 11.449219 11.871094 11.246094 Z M 9.746094 10.847656 C 9.746094 10.820312 9.902344 10.699219 10.101562 10.582031 C 10.285156 10.480469 10.59375 10.261719 10.777344 10.097656 C 11.085938 9.820312 11.101562 9.804688 10.980469 9.671875 C 10.839844 9.570312 10.839844 9.539062 10.949219 9.363281 C 11.007812 9.261719 11.117188 9.160156 11.195312 9.144531 C 11.300781 9.128906 11.316406 9.171875 11.316406 9.363281 C 11.316406 9.496094 11.347656 9.628906 11.394531 9.660156 C 11.519531 9.730469 11.488281 9.921875 11.347656 9.894531 C 11.285156 9.878906 11.070312 10.023438 10.871094 10.203125 C 10.5 10.554688 9.746094 10.980469 9.746094 10.847656 Z M 11.132812 9.363281 C 11.054688 9.292969 10.996094 9.394531 11.054688 9.496094 C 11.101562 9.570312 11.117188 9.570312 11.148438 9.496094 C 11.164062 9.453125 11.148438 9.394531 11.132812 9.363281 Z M 10.316406 9.878906 C 10.238281 9.804688 10.253906 9.4375 10.347656 9.394531 C 10.394531 9.363281 10.425781 9.4375 10.425781 9.539062 C 10.425781 9.703125 10.441406 9.71875 10.53125 9.644531 C 10.59375 9.597656 10.640625 9.585938 10.640625 9.628906 C 10.640625 9.71875 10.378906 9.921875 10.316406 9.878906 Z M 13.765625 9.351562 C 13.675781 9.144531 13.398438 8.835938 13.398438 8.953125 C 13.398438 8.984375 13.351562 8.96875 13.289062 8.925781 C 13.136719 8.804688 13.152344 8.570312 13.304688 8.570312 C 13.367188 8.570312 13.535156 8.6875 13.675781 8.820312 L 13.921875 9.070312 L 14.011719 8.675781 C 14.105469 8.234375 14.214844 8.117188 14.351562 8.308594 C 14.460938 8.453125 14.414062 8.6875 14.289062 8.570312 C 14.152344 8.4375 14.105469 8.5 14.058594 8.996094 C 13.984375 9.554688 13.90625 9.660156 13.765625 9.351562 Z M 18.109375 8.9375 C 18.019531 8.777344 18.09375 8.335938 18.25 8.101562 C 18.328125 7.984375 18.328125 7.984375 18.28125 8.144531 C 18.171875 8.46875 18.203125 8.746094 18.34375 8.746094 C 18.433594 8.746094 18.449219 8.777344 18.402344 8.878906 C 18.328125 9.085938 18.203125 9.101562 18.109375 8.9375 Z M 19.449219 8.910156 C 19.34375 8.804688 19.34375 8.527344 19.480469 8.21875 L 19.589844 7.96875 L 19.542969 8.261719 C 19.496094 8.628906 19.558594 8.863281 19.667969 8.703125 C 19.726562 8.617188 19.742188 8.617188 19.742188 8.71875 C 19.742188 8.894531 19.558594 9.011719 19.449219 8.910156 Z M 16.09375 8.144531 C 16.03125 8.042969 16.046875 7.925781 16.171875 7.644531 C 16.261719 7.457031 16.371094 7.25 16.433594 7.207031 C 16.570312 7.089844 16.554688 7.148438 16.355469 7.5 C 16.171875 7.824219 16.171875 8.144531 16.355469 7.984375 C 16.476562 7.882812 16.492188 7.953125 16.386719 8.132812 C 16.277344 8.320312 16.183594 8.320312 16.09375 8.144531 Z M 11.503906 8.027344 C 11.410156 7.941406 11.457031 7.5 11.5625 7.292969 C 11.734375 6.984375 11.765625 7.03125 11.625 7.367188 C 11.503906 7.644531 11.535156 7.910156 11.671875 7.835938 C 11.71875 7.808594 11.75 7.824219 11.75 7.867188 C 11.765625 7.941406 11.5625 8.070312 11.503906 8.027344 Z M 17.527344 5.988281 C 17.832031 5.871094 17.773438 5.765625 17.417969 5.8125 L 17.09375 5.855469 L 17.261719 5.722656 C 17.527344 5.515625 18.019531 5.546875 18.019531 5.765625 C 18.019531 5.882812 17.632812 6.089844 17.449219 6.074219 C 17.355469 6.058594 17.371094 6.046875 17.527344 5.988281 Z M 17.527344 5.988281 "/>
</g>
</g>
</svg>
