<?xml version="1.0" encoding="UTF-8"?>
<svg xmlns="http://www.w3.org/2000/svg" xmlns:xlink="http://www.w3.org/1999/xlink" width="30pt" height="30.000001pt" viewBox="0 0 30 30.000001" version="1.2">
<defs>
<clipPath id="clip1">
  <path d="M 2.519531 20 L 26.929688 20 L 26.929688 23.386719 L 2.519531 23.386719 Z M 2.519531 20 "/>
</clipPath>
<clipPath id="clip2">
  <path d="M 2.519531 5.96875 L 26.929688 5.96875 L 26.929688 23.386719 L 2.519531 23.386719 Z M 2.519531 5.96875 "/>
</clipPath>
<clipPath id="clip3">
  <path d="M 18 5.96875 L 25 5.96875 L 25 12 L 18 12 Z M 18 5.96875 "/>
</clipPath>
<clipPath id="clip4">
  <path d="M 19 22 L 21 22 L 21 23.386719 L 19 23.386719 Z M 19 22 "/>
</clipPath>
</defs>
<g id="surface1">
<path style=" stroke:none;fill-rule:nonzero;fill:rgb(98.039246%,96.078491%,86.268616%);fill-opacity:1;" d="M 24.605469 6.773438 L 24.605469 10.808594 C 24.605469 10.921875 24.570312 11.015625 24.496094 11.09375 C 24.421875 11.171875 24.332031 11.214844 24.226562 11.214844 L 22.328125 11.214844 C 22.230469 11.214844 22.148438 11.179688 22.078125 11.113281 C 22.003906 11.046875 21.964844 10.964844 21.949219 10.863281 C 21.949219 10.84375 21.945312 10.828125 21.949219 10.808594 L 21.949219 6.773438 C 21.949219 6.664062 21.984375 6.570312 22.058594 6.488281 C 22.132812 6.410156 22.222656 6.371094 22.328125 6.371094 L 24.226562 6.371094 C 24.332031 6.371094 24.421875 6.410156 24.496094 6.488281 C 24.570312 6.570312 24.605469 6.664062 24.605469 6.773438 Z M 24.605469 6.773438 "/>
<g clip-path="url(#clip1)" clip-rule="nonzero">
<path style=" stroke:none;fill-rule:nonzero;fill:rgb(25.489807%,76.078796%,87.838745%);fill-opacity:1;" d="M 9.933594 20.089844 L 20.425781 20.089844 L 26.507812 23.320312 L 2.949219 23.320312 L 7.886719 20.320312 L 7.886719 21.328125 C 7.886719 21.441406 7.921875 21.539062 7.996094 21.617188 C 8.070312 21.699219 8.160156 21.738281 8.269531 21.742188 L 11.0625 21.742188 C 11.222656 21.738281 11.363281 21.679688 11.484375 21.5625 C 11.601562 21.445312 11.667969 21.300781 11.683594 21.132812 C 11.699219 20.960938 11.660156 20.804688 11.5625 20.667969 C 11.46875 20.527344 11.339844 20.441406 11.183594 20.40625 L 10.089844 20.171875 C 10.03125 20.160156 9.980469 20.132812 9.933594 20.089844 Z M 9.933594 20.089844 "/>
</g>
<path style=" stroke:none;fill-rule:nonzero;fill:rgb(98.039246%,96.078491%,86.268616%);fill-opacity:1;" d="M 17.296875 6.800781 C 17.152344 6.515625 16.929688 6.371094 16.628906 6.371094 L 10.546875 6.371094 C 8.449219 6.371094 6.746094 8.199219 6.746094 10.453125 L 6.746094 18.476562 L 11.308594 18.476562 L 11.308594 13.621094 L 12.449219 14.539062 L 17.117188 10.292969 C 17.296875 10.128906 17.386719 9.921875 17.386719 9.667969 L 17.386719 7.1875 C 17.386719 7.050781 17.355469 6.921875 17.296875 6.800781 Z M 11.308594 12.96875 L 11.308594 11.222656 C 11.308594 11.121094 11.339844 11.03125 11.402344 10.953125 C 11.464844 10.875 11.542969 10.832031 11.636719 10.816406 L 14.019531 10.5 Z M 11.308594 12.96875 "/>
<path style=" stroke:none;fill-rule:nonzero;fill:rgb(94.898987%,76.858521%,69.799805%);fill-opacity:1;" d="M 21.949219 10.808594 C 21.945312 10.828125 21.949219 10.84375 21.949219 10.863281 L 20.425781 10.863281 C 20.226562 10.863281 20.03125 10.820312 19.84375 10.734375 C 19.65625 10.652344 19.492188 10.535156 19.347656 10.382812 C 19.207031 10.230469 19.097656 10.054688 19.019531 9.855469 C 18.945312 9.65625 18.90625 9.449219 18.90625 9.230469 L 18.90625 8.820312 L 17.386719 8.820312 L 17.386719 7.1875 C 17.386719 7.050781 17.355469 6.921875 17.296875 6.800781 L 17.386719 6.773438 L 21.949219 6.777344 Z M 21.949219 10.808594 "/>
<path style=" stroke:none;fill-rule:nonzero;fill:rgb(94.898987%,76.858521%,69.799805%);fill-opacity:1;" d="M 11.183594 20.40625 C 11.339844 20.441406 11.46875 20.527344 11.5625 20.667969 C 11.660156 20.804688 11.699219 20.960938 11.683594 21.132812 C 11.667969 21.300781 11.601562 21.445312 11.484375 21.5625 C 11.363281 21.679688 11.222656 21.738281 11.0625 21.742188 L 8.269531 21.742188 C 8.160156 21.738281 8.070312 21.699219 7.996094 21.617188 C 7.921875 21.539062 7.886719 21.441406 7.886719 21.328125 L 7.886719 18.476562 L 9.789062 18.476562 L 9.789062 19.773438 C 9.789062 19.902344 9.835938 20.007812 9.933594 20.089844 C 9.980469 20.132812 10.03125 20.160156 10.089844 20.171875 Z M 11.183594 20.40625 "/>
<path style=" stroke:none;fill-rule:nonzero;fill:rgb(94.898987%,76.858521%,69.799805%);fill-opacity:1;" d="M 12.449219 14.539062 L 12.449219 15.933594 C 12.449219 16.113281 12.390625 16.265625 12.273438 16.390625 C 12.152344 16.515625 12.011719 16.582031 11.84375 16.582031 L 11.839844 16.582031 C 11.597656 16.578125 11.421875 16.464844 11.308594 16.238281 C 11.277344 16.167969 11.253906 16.09375 11.242188 16.015625 L 10.925781 13.316406 L 11.308594 13.621094 Z M 12.449219 14.539062 "/>
<g clip-path="url(#clip2)" clip-rule="nonzero">
<path style=" stroke:none;fill-rule:nonzero;fill:rgb(0%,0%,0%);fill-opacity:1;" d="M 21.1875 23.320312 C 21.1875 23.429688 21.222656 23.527344 21.296875 23.605469 C 21.371094 23.683594 21.460938 23.722656 21.566406 23.722656 L 26.507812 23.722656 C 26.707031 23.722656 26.832031 23.617188 26.875 23.410156 C 26.921875 23.203125 26.855469 23.054688 26.675781 22.957031 L 20.597656 19.730469 C 20.542969 19.703125 20.488281 19.6875 20.425781 19.6875 L 10.167969 19.6875 L 10.167969 18.878906 L 11.308594 18.878906 C 11.414062 18.878906 11.503906 18.839844 11.578125 18.761719 C 11.652344 18.683594 11.6875 18.589844 11.6875 18.476562 L 11.6875 18.074219 C 11.6875 17.960938 11.652344 17.867188 11.578125 17.789062 C 11.503906 17.710938 11.414062 17.667969 11.308594 17.667969 C 11.203125 17.667969 11.113281 17.710938 11.039062 17.789062 C 10.964844 17.867188 10.925781 17.960938 10.925781 18.074219 L 7.128906 18.074219 L 7.128906 10.457031 C 7.128906 8.425781 8.660156 6.773438 10.546875 6.773438 L 16.628906 6.773438 C 16.734375 6.777344 16.824219 6.816406 16.898438 6.898438 C 16.972656 6.980469 17.007812 7.074219 17.007812 7.1875 L 17.007812 9.667969 C 17.007812 9.796875 16.960938 9.902344 16.871094 9.984375 L 12.433594 14.023438 L 11.53125 13.292969 L 14.238281 10.835938 C 14.25 10.824219 14.261719 10.816406 14.273438 10.808594 L 16.113281 9.128906 C 16.195312 9.054688 16.238281 8.964844 16.246094 8.851562 C 16.253906 8.742188 16.222656 8.644531 16.15625 8.558594 C 16.085938 8.472656 16 8.429688 15.898438 8.417969 C 15.792969 8.410156 15.699219 8.441406 15.621094 8.515625 L 13.863281 10.113281 L 11.59375 10.417969 C 11.402344 10.445312 11.246094 10.535156 11.117188 10.6875 C 10.992188 10.839844 10.929688 11.015625 10.925781 11.21875 C 10.925781 11.332031 10.964844 11.425781 11.039062 11.503906 C 11.113281 11.585938 11.203125 11.625 11.308594 11.625 C 11.414062 11.625 11.503906 11.585938 11.578125 11.503906 C 11.652344 11.425781 11.6875 11.332031 11.6875 11.21875 L 12.8125 11.070312 C 12.8125 11.070312 10.679688 13.007812 10.679688 13.007812 C 10.582031 13.105469 10.539062 13.222656 10.550781 13.363281 C 10.550781 13.363281 10.867188 16.070312 10.867188 16.074219 C 10.898438 16.347656 11.015625 16.574219 11.21875 16.75 C 11.417969 16.925781 11.648438 17.003906 11.910156 16.984375 C 12.167969 16.964844 12.386719 16.855469 12.5625 16.652344 C 12.742188 16.449219 12.828125 16.210938 12.828125 15.933594 L 12.828125 14.726562 L 17.363281 10.597656 C 17.632812 10.355469 17.769531 10.042969 17.765625 9.667969 L 17.765625 9.226562 C 17.765625 9.226562 18.527344 9.226562 18.527344 9.234375 C 18.527344 9.5 18.574219 9.757812 18.671875 10.007812 C 18.765625 10.257812 18.902344 10.476562 19.082031 10.667969 C 19.257812 10.855469 19.464844 11.003906 19.699219 11.109375 C 19.929688 11.210938 20.175781 11.265625 20.425781 11.265625 C 20.53125 11.265625 20.621094 11.226562 20.695312 11.148438 C 20.769531 11.070312 20.808594 10.972656 20.808594 10.863281 C 20.808594 10.75 20.769531 10.65625 20.695312 10.578125 C 20.621094 10.5 20.53125 10.460938 20.425781 10.460938 C 20.273438 10.457031 20.128906 10.425781 19.988281 10.363281 C 19.847656 10.300781 19.726562 10.210938 19.617188 10.097656 C 19.511719 9.980469 19.429688 9.847656 19.371094 9.699219 C 19.316406 9.550781 19.285156 9.394531 19.285156 9.234375 L 19.285156 8.820312 C 19.285156 8.710938 19.25 8.613281 19.175781 8.535156 C 19.101562 8.457031 19.011719 8.417969 18.90625 8.417969 L 17.765625 8.417969 L 17.765625 7.1875 C 17.765625 7.027344 17.738281 6.871094 17.679688 6.722656 C 17.625 6.574219 17.542969 6.441406 17.433594 6.328125 C 17.328125 6.214844 17.203125 6.125 17.066406 6.0625 C 16.925781 6 16.777344 5.96875 16.628906 5.96875 L 10.546875 5.96875 C 8.242188 5.96875 6.367188 7.980469 6.367188 10.457031 L 6.367188 18.476562 C 6.367188 18.589844 6.40625 18.683594 6.480469 18.761719 C 6.554688 18.839844 6.640625 18.878906 6.746094 18.878906 L 7.507812 18.878906 L 7.507812 20.085938 L 2.757812 22.96875 C 2.589844 23.070312 2.53125 23.222656 2.582031 23.421875 C 2.628906 23.621094 2.753906 23.722656 2.949219 23.722656 L 18.148438 23.722656 C 18.253906 23.722656 18.339844 23.683594 18.414062 23.605469 C 18.488281 23.527344 18.527344 23.429688 18.527344 23.320312 C 18.527344 23.207031 18.488281 23.113281 18.414062 23.035156 C 18.339844 22.953125 18.253906 22.914062 18.148438 22.914062 L 4.378906 22.914062 L 7.507812 21.015625 L 7.507812 21.328125 C 7.507812 21.554688 7.582031 21.746094 7.730469 21.90625 C 7.875 22.0625 8.054688 22.144531 8.265625 22.144531 L 11.058594 22.144531 C 11.457031 22.140625 11.75 21.953125 11.941406 21.585938 C 12.132812 21.214844 12.125 20.851562 11.914062 20.496094 L 20.335938 20.496094 L 24.898438 22.914062 L 21.566406 22.914062 C 21.460938 22.914062 21.371094 22.953125 21.296875 23.035156 C 21.222656 23.113281 21.1875 23.207031 21.1875 23.320312 Z M 11.839844 16.179688 C 11.707031 16.175781 11.632812 16.105469 11.621094 15.964844 L 11.414062 14.214844 L 12.066406 14.742188 L 12.066406 15.933594 C 12.070312 16.097656 11.992188 16.179688 11.839844 16.179688 Z M 11.0625 21.335938 L 8.269531 21.328125 L 8.269531 18.878906 L 9.40625 18.878906 L 9.40625 19.773438 C 9.410156 20.007812 9.492188 20.207031 9.65625 20.363281 C 9.660156 20.371094 9.667969 20.375 9.671875 20.382812 C 9.679688 20.386719 9.683594 20.394531 9.691406 20.402344 C 9.785156 20.488281 9.894531 20.542969 10.015625 20.566406 L 11.105469 20.800781 C 11.253906 20.835938 11.320312 20.929688 11.304688 21.089844 C 11.292969 21.25 11.210938 21.332031 11.0625 21.335938 Z M 11.0625 21.335938 "/>
</g>
<g clip-path="url(#clip3)" clip-rule="nonzero">
<path style=" stroke:none;fill-rule:nonzero;fill:rgb(0%,0%,0%);fill-opacity:1;" d="M 24.226562 5.96875 L 22.328125 5.96875 C 22.035156 5.96875 21.816406 6.105469 21.671875 6.375 L 18.90625 6.371094 C 18.800781 6.371094 18.714844 6.410156 18.640625 6.488281 C 18.566406 6.566406 18.527344 6.664062 18.527344 6.773438 C 18.527344 6.886719 18.566406 6.980469 18.636719 7.058594 C 18.710938 7.140625 18.800781 7.179688 18.90625 7.179688 L 21.566406 7.183594 L 21.566406 10.808594 C 21.566406 11.03125 21.640625 11.222656 21.789062 11.378906 C 21.9375 11.539062 22.117188 11.617188 22.328125 11.617188 L 24.226562 11.617188 C 24.4375 11.617188 24.617188 11.539062 24.765625 11.378906 C 24.914062 11.222656 24.988281 11.03125 24.988281 10.808594 L 24.988281 6.773438 C 24.988281 6.550781 24.914062 6.363281 24.765625 6.203125 C 24.617188 6.046875 24.4375 5.96875 24.226562 5.96875 Z M 22.328125 10.808594 L 22.328125 6.773438 L 24.226562 6.773438 L 24.226562 10.808594 Z M 22.328125 10.808594 "/>
</g>
<g clip-path="url(#clip4)" clip-rule="nonzero">
<path style=" stroke:none;fill-rule:nonzero;fill:rgb(0%,0%,0%);fill-opacity:1;" d="M 20.046875 22.914062 L 19.667969 22.914062 C 19.5625 22.914062 19.472656 22.953125 19.398438 23.035156 C 19.324219 23.113281 19.289062 23.207031 19.289062 23.320312 C 19.289062 23.429688 19.324219 23.527344 19.398438 23.605469 C 19.472656 23.683594 19.5625 23.722656 19.667969 23.722656 L 20.046875 23.722656 C 20.152344 23.722656 20.242188 23.683594 20.316406 23.605469 C 20.390625 23.527344 20.425781 23.429688 20.425781 23.320312 C 20.425781 23.207031 20.390625 23.113281 20.316406 23.035156 C 20.242188 22.953125 20.152344 22.914062 20.046875 22.914062 Z M 20.046875 22.914062 "/>
</g>
</g>
</svg>
