<?xml version="1.0" encoding="UTF-8"?>
<svg xmlns="http://www.w3.org/2000/svg" xmlns:xlink="http://www.w3.org/1999/xlink" width="30pt" height="30.000001pt" viewBox="0 0 30 30.000001" version="1.2">
<defs>
<clipPath id="clip1">
  <path d="M 2.542969 9.222656 L 19 9.222656 L 19 20.109375 L 2.542969 20.109375 Z M 2.542969 9.222656 "/>
</clipPath>
<clipPath id="clip2">
  <path d="M 22 12 L 27.222656 12 L 27.222656 20 L 22 20 Z M 22 12 "/>
</clipPath>
<clipPath id="clip3">
  <path d="M 12 12 L 22 12 L 22 20.109375 L 12 20.109375 Z M 12 12 "/>
</clipPath>
</defs>
<g id="surface1">
<g clip-path="url(#clip1)" clip-rule="nonzero">
<path style=" stroke:none;fill-rule:nonzero;fill:rgb(100%,100%,100%);fill-opacity:1;" d="M 4.398438 20.109375 L 11.914062 20.109375 C 12.59375 20.109375 13.21875 19.699219 13.507812 19.058594 C 13.574219 18.914062 13.621094 18.757812 13.644531 18.601562 L 13.542969 18.570312 C 13.109375 18.445312 12.757812 18.105469 12.605469 17.667969 C 12.457031 17.253906 12.5 16.792969 12.71875 16.417969 L 11.527344 14.917969 C 12.152344 15.078125 12.761719 15.261719 13.339844 15.441406 L 14.777344 13.210938 C 15.039062 12.804688 15.476562 12.558594 15.949219 12.558594 C 16.226562 12.558594 16.5 12.644531 16.730469 12.808594 C 17.378906 13.253906 17.550781 14.167969 17.121094 14.835938 L 16.222656 16.230469 C 17.238281 16.253906 18.195312 15.820312 18.492188 14.960938 C 18.914062 13.75 18.441406 11.878906 16.464844 10.929688 C 13.734375 9.636719 11.914062 9.226562 8.761719 9.269531 C 6.460938 9.484375 6.070312 11.066406 5.953125 12.402344 C 5.886719 13.148438 5.882812 13.667969 6.238281 13.996094 C 6.277344 14.058594 6.316406 14.117188 6.359375 14.171875 L 8.171875 16.449219 L 4.398438 16.449219 C 3.425781 16.449219 2.636719 17.269531 2.636719 18.28125 C 2.636719 19.289062 3.425781 20.109375 4.398438 20.109375 Z M 4.398438 20.109375 "/>
</g>
<path style=" stroke:none;fill-rule:nonzero;fill:rgb(100%,100%,100%);fill-opacity:1;" d="M 21.109375 18.207031 C 21.277344 18.519531 21.328125 18.875 21.257812 19.21875 C 21.46875 19.28125 21.6875 19.324219 21.914062 19.339844 C 22.171875 19.363281 22.425781 19.347656 22.671875 19.304688 L 22.71875 19.230469 C 22.726562 19.214844 23.625 17.703125 23.738281 16.109375 C 23.746094 16.019531 23.75 15.929688 23.75 15.839844 C 23.773438 14.152344 23.179688 13.046875 23.175781 13.035156 L 23.113281 12.921875 C 22.878906 12.84375 22.636719 12.792969 22.386719 12.773438 C 20.636719 12.640625 19.117188 14 18.988281 15.816406 C 18.953125 16.296875 19.023438 16.761719 19.171875 17.1875 L 20.265625 17.511719 C 20.628906 17.617188 20.925781 17.867188 21.109375 18.207031 Z M 21.109375 18.207031 "/>
<g clip-path="url(#clip2)" clip-rule="nonzero">
<path style=" stroke:none;fill-rule:nonzero;fill:rgb(100%,100%,100%);fill-opacity:1;" d="M 22.957031 19.382812 L 26.183594 19.070312 C 26.183594 19.070312 26.886719 18.128906 27.007812 16.421875 C 27.128906 14.710938 26.566406 13.671875 26.566406 13.671875 L 23.417969 12.890625 C 23.417969 12.890625 24.054688 14.046875 24.03125 15.84375 C 24.011719 17.640625 22.957031 19.382812 22.957031 19.382812 Z M 22.957031 19.382812 "/>
</g>
<g clip-path="url(#clip3)" clip-rule="nonzero">
<path style=" stroke:none;fill-rule:nonzero;fill:rgb(100%,100%,100%);fill-opacity:1;" d="M 16.574219 13.050781 C 16.058594 12.691406 15.359375 12.835938 15.011719 13.371094 L 12.988281 16.511719 C 12.789062 16.824219 12.742188 17.214844 12.867188 17.566406 C 12.992188 17.917969 13.269531 18.1875 13.617188 18.289062 L 19.570312 20.046875 C 19.675781 20.074219 19.777344 20.089844 19.882812 20.089844 C 20.371094 20.089844 20.824219 19.753906 20.964844 19.238281 C 21.136719 18.617188 20.789062 17.96875 20.1875 17.792969 L 15.722656 16.476562 L 16.886719 14.675781 C 17.230469 14.136719 17.09375 13.410156 16.574219 13.050781 Z M 16.574219 13.050781 "/>
</g>
</g>
</svg>
