<?xml version="1.0" encoding="UTF-8"?>
<svg xmlns="http://www.w3.org/2000/svg" xmlns:xlink="http://www.w3.org/1999/xlink" width="30pt" height="30.000001pt" viewBox="0 0 30 30.000001" version="1.2">
<defs>
<clipPath id="clip1">
  <path d="M 12 1.925781 L 18 1.925781 L 18 5 L 12 5 Z M 12 1.925781 "/>
</clipPath>
<clipPath id="clip2">
  <path d="M 12 11 L 18 11 L 18 27.328125 L 12 27.328125 Z M 12 11 "/>
</clipPath>
<clipPath id="clip3">
  <path d="M 10.292969 8 L 19.730469 8 L 19.730469 14 L 10.292969 14 Z M 10.292969 8 "/>
</clipPath>
</defs>
<g id="surface1">
<g clip-path="url(#clip1)" clip-rule="nonzero">
<path style=" stroke:none;fill-rule:nonzero;fill:rgb(100%,100%,100%);fill-opacity:1;" d="M 15.015625 3.390625 C 15.949219 3.390625 16.761719 3.925781 17.171875 4.703125 L 16.855469 2.402344 C 16.855469 2.402344 16.179688 1.953125 15.015625 1.953125 C 13.851562 1.953125 13.175781 2.402344 13.175781 2.402344 L 12.859375 4.703125 C 13.265625 3.925781 14.078125 3.390625 15.015625 3.390625 Z M 15.015625 3.390625 "/>
</g>
<g clip-path="url(#clip2)" clip-rule="nonzero">
<path style=" stroke:none;fill-rule:nonzero;fill:rgb(100%,100%,100%);fill-opacity:1;" d="M 16.976562 13.3125 C 16.433594 13.023438 15.804688 12.597656 15.054688 12.015625 C 15.039062 12.003906 15.027344 11.992188 15.015625 11.980469 C 15 11.992188 14.988281 12.003906 14.972656 12.015625 C 14.222656 12.597656 13.59375 13.023438 13.050781 13.3125 C 12.796875 13.445312 12.5625 13.558594 12.324219 13.640625 L 12.324219 26.0625 C 12.324219 26.746094 12.875 27.300781 13.554688 27.300781 C 14.234375 27.300781 14.785156 26.746094 14.785156 26.0625 L 14.785156 17.039062 L 15.246094 17.039062 L 15.246094 26.0625 C 15.246094 26.746094 15.796875 27.300781 16.472656 27.300781 C 17.152344 27.300781 17.703125 26.746094 17.703125 26.0625 L 17.703125 13.640625 C 17.46875 13.558594 17.230469 13.449219 16.976562 13.3125 Z M 16.976562 13.3125 "/>
</g>
<path style=" stroke:none;fill-rule:nonzero;fill:rgb(100%,100%,100%);fill-opacity:1;" d="M 17.25 5.839844 C 17.25 6.136719 17.195312 6.425781 17.082031 6.699219 C 16.96875 6.976562 16.804688 7.21875 16.597656 7.429688 C 16.386719 7.640625 16.144531 7.804688 15.871094 7.917969 C 15.597656 8.03125 15.3125 8.089844 15.015625 8.089844 C 14.71875 8.089844 14.433594 8.03125 14.160156 7.917969 C 13.882812 7.804688 13.640625 7.640625 13.433594 7.429688 C 13.222656 7.21875 13.0625 6.976562 12.949219 6.699219 C 12.835938 6.425781 12.777344 6.136719 12.777344 5.839844 C 12.777344 5.542969 12.835938 5.253906 12.949219 4.980469 C 13.0625 4.703125 13.222656 4.460938 13.433594 4.25 C 13.640625 4.039062 13.882812 3.875 14.160156 3.761719 C 14.433594 3.648438 14.71875 3.589844 15.015625 3.589844 C 15.3125 3.589844 15.597656 3.648438 15.871094 3.761719 C 16.144531 3.875 16.386719 4.039062 16.597656 4.25 C 16.804688 4.460938 16.96875 4.703125 17.082031 4.980469 C 17.195312 5.253906 17.25 5.542969 17.25 5.839844 Z M 17.25 5.839844 "/>
<g clip-path="url(#clip3)" clip-rule="nonzero">
<path style=" stroke:none;fill-rule:nonzero;fill:rgb(100%,100%,100%);fill-opacity:1;" d="M 10.292969 12.285156 C 10.296875 12.546875 10.347656 12.871094 10.589844 13.164062 C 10.710938 13.308594 10.875 13.425781 11.042969 13.492188 C 11.214844 13.558594 11.386719 13.585938 11.546875 13.585938 C 12.019531 13.578125 12.433594 13.414062 12.960938 13.136719 C 13.480469 12.859375 14.097656 12.445312 14.851562 11.855469 C 14.863281 11.851562 14.871094 11.84375 14.878906 11.835938 C 14.609375 11.484375 14.59375 10.980469 14.875 10.613281 C 14.875 10.613281 14.878906 10.613281 14.878906 10.613281 C 14.597656 10.375 14.179688 10.359375 13.878906 10.59375 C 13.171875 11.144531 12.613281 11.511719 12.210938 11.726562 C 12.136719 11.765625 12.066406 11.800781 12.003906 11.832031 C 12.011719 11.808594 12.023438 11.785156 12.03125 11.761719 C 12.066406 11.679688 12.109375 11.59375 12.152344 11.507812 C 12.207031 11.40625 12.261719 11.304688 12.324219 11.203125 L 12.324219 11.4375 C 12.71875 11.183594 13.335938 10.761719 13.757812 10.433594 C 13.933594 10.296875 14.144531 10.226562 14.367188 10.226562 C 14.609375 10.226562 14.835938 10.3125 15.015625 10.46875 C 15.195312 10.3125 15.421875 10.226562 15.664062 10.226562 C 15.886719 10.226562 16.09375 10.296875 16.269531 10.433594 C 16.695312 10.761719 17.3125 11.183594 17.703125 11.4375 L 17.703125 11.203125 C 17.765625 11.304688 17.824219 11.40625 17.875 11.507812 C 17.921875 11.59375 17.960938 11.679688 17.996094 11.761719 C 18.007812 11.785156 18.015625 11.808594 18.027344 11.832031 C 17.960938 11.800781 17.894531 11.769531 17.816406 11.726562 C 17.414062 11.511719 16.859375 11.144531 16.148438 10.59375 C 15.800781 10.320312 15.300781 10.386719 15.035156 10.734375 C 14.765625 11.085938 14.828125 11.585938 15.175781 11.859375 C 15.933594 12.445312 16.550781 12.859375 17.070312 13.136719 C 17.59375 13.414062 18.011719 13.578125 18.480469 13.585938 C 18.640625 13.585938 18.8125 13.558594 18.984375 13.492188 C 19.15625 13.425781 19.320312 13.308594 19.4375 13.164062 C 19.679688 12.871094 19.734375 12.546875 19.734375 12.285156 C 19.726562 11.746094 19.539062 11.277344 19.296875 10.789062 C 19.296875 10.785156 19.292969 10.78125 19.289062 10.773438 C 19.042969 10.300781 18.730469 9.839844 18.371094 9.460938 C 18.128906 9.203125 17.867188 8.976562 17.542969 8.816406 C 17.359375 8.726562 17.140625 8.652344 16.882812 8.652344 C 16.847656 8.652344 16.816406 8.65625 16.785156 8.660156 L 13.246094 8.660156 C 13.210938 8.65625 13.179688 8.652344 13.148438 8.652344 C 12.890625 8.652344 12.671875 8.726562 12.484375 8.816406 C 12.160156 8.976562 11.902344 9.203125 11.65625 9.460938 C 11.300781 9.839844 10.984375 10.300781 10.738281 10.773438 C 10.738281 10.78125 10.734375 10.785156 10.730469 10.789062 C 10.488281 11.277344 10.304688 11.746094 10.292969 12.285156 Z M 10.292969 12.285156 "/>
</g>
</g>
</svg>
